<?xml version="1.0" encoding="UTF-8"?>
<svg xmlns="http://www.w3.org/2000/svg" width="256" height="128" viewBox="0 0 256 128" shape-rendering="crispEdges">
<rect x="0" y="0" width="16" height="16" fill="#3A3030" /><rect x="5" y="0" width="1" height="16" fill="#151923" /><rect x="11" y="0" width="1" height="16" fill="#151923" /><rect x="6" y="0" width="1" height="16" fill="#303746" /><rect x="12" y="0" width="1" height="16" fill="#303746" /><rect x="1" y="3" width="4" height="1" fill="#151923" /><rect x="7" y="12" width="4" height="1" fill="#151923" /><rect x="13" y="5" width="3" height="1" fill="#151923" /><rect x="2" y="1" width="2" height="1" fill="#303746" /><rect x="8" y="7" width="2" height="1" fill="#303746" /><rect x="64" y="0" width="16" height="16" fill="#0B0C14" /><rect x="65" y="1" width="6" height="6" fill="#40525A" /><rect x="73" y="1" width="6" height="6" fill="#242936" /><rect x="65" y="9" width="6" height="6" fill="#242936" /><rect x="73" y="9" width="6" height="6" fill="#40525A" /><rect x="66" y="2" width="4" height="1" fill="#69656A" opacity="0.45"/><rect x="74" y="10" width="4" height="1" fill="#69656A" opacity="0.35"/><rect x="16" y="0" width="16" height="16" fill="#3A3030" /><rect x="21" y="0" width="1" height="16" fill="#151923" /><rect x="27" y="0" width="1" height="16" fill="#151923" /><rect x="22" y="0" width="1" height="16" fill="#303746" /><rect x="28" y="0" width="1" height="16" fill="#303746" /><rect x="17" y="6" width="4" height="1" fill="#151923" /><rect x="23" y="10" width="4" height="1" fill="#151923" /><rect x="29" y="10" width="3" height="1" fill="#151923" /><rect x="19" y="1" width="2" height="1" fill="#303746" /><rect x="24" y="10" width="2" height="1" fill="#303746" /><rect x="80" y="0" width="16" height="16" fill="#0B0C14" /><rect x="81" y="1" width="6" height="6" fill="#242936" /><rect x="89" y="1" width="6" height="6" fill="#40525A" /><rect x="81" y="9" width="6" height="6" fill="#40525A" /><rect x="89" y="9" width="6" height="6" fill="#242936" /><rect x="82" y="2" width="4" height="1" fill="#69656A" opacity="0.45"/><rect x="90" y="10" width="4" height="1" fill="#69656A" opacity="0.35"/><rect x="32" y="0" width="16" height="16" fill="#3A3030" /><rect x="37" y="0" width="1" height="16" fill="#151923" /><rect x="43" y="0" width="1" height="16" fill="#151923" /><rect x="38" y="0" width="1" height="16" fill="#303746" /><rect x="44" y="0" width="1" height="16" fill="#303746" /><rect x="33" y="9" width="4" height="1" fill="#151923" /><rect x="39" y="8" width="4" height="1" fill="#151923" /><rect x="45" y="5" width="3" height="1" fill="#151923" /><rect x="36" y="1" width="2" height="1" fill="#303746" /><rect x="40" y="7" width="2" height="1" fill="#303746" /><rect x="34" y="11" width="1" height="1" fill="#69656A" /><rect x="96" y="0" width="16" height="16" fill="#0B0C14" /><rect x="97" y="1" width="6" height="6" fill="#40525A" /><rect x="105" y="1" width="6" height="6" fill="#242936" /><rect x="97" y="9" width="6" height="6" fill="#242936" /><rect x="105" y="9" width="6" height="6" fill="#40525A" /><rect x="98" y="2" width="4" height="1" fill="#69656A" opacity="0.45"/><rect x="106" y="10" width="4" height="1" fill="#69656A" opacity="0.35"/><line x1="106" y1="9" x2="110" y2="13" stroke="#69656A" stroke-width="1" /><rect x="109" y="13" width="2" height="1" fill="#242936" /><rect x="48" y="0" width="16" height="16" fill="#3A3030" /><rect x="53" y="0" width="1" height="16" fill="#151923" /><rect x="59" y="0" width="1" height="16" fill="#151923" /><rect x="54" y="0" width="1" height="16" fill="#303746" /><rect x="60" y="0" width="1" height="16" fill="#303746" /><rect x="49" y="12" width="4" height="1" fill="#151923" /><rect x="55" y="6" width="4" height="1" fill="#151923" /><rect x="61" y="10" width="3" height="1" fill="#151923" /><rect x="53" y="1" width="2" height="1" fill="#303746" /><rect x="56" y="10" width="2" height="1" fill="#303746" /><rect x="112" y="0" width="16" height="16" fill="#0B0C14" /><rect x="113" y="1" width="6" height="6" fill="#242936" /><rect x="121" y="1" width="6" height="6" fill="#40525A" /><rect x="113" y="9" width="6" height="6" fill="#40525A" /><rect x="121" y="9" width="6" height="6" fill="#242936" /><rect x="114" y="2" width="4" height="1" fill="#69656A" opacity="0.45"/><rect x="122" y="10" width="4" height="1" fill="#69656A" opacity="0.35"/><rect x="115" y="11" width="2" height="2" fill="#69656A" /><rect x="123" y="3" width="1" height="2" fill="#0B0C14" /><rect x="128" y="0" width="16" height="16" fill="#0B0C14" /><rect x="129" y="1" width="14" height="14" fill="#8D3035" /><rect x="131" y="3" width="10" height="10" fill="#242936" /><rect x="132" y="4" width="8" height="1" fill="#C29A5B" /><rect x="132" y="11" width="8" height="1" fill="#0B0C14" /><rect x="144" y="0" width="16" height="16" fill="#0B0C14" /><rect x="145" y="1" width="14" height="14" fill="#69656A" /><rect x="147" y="3" width="10" height="10" fill="#242936" /><rect x="148" y="4" width="8" height="1" fill="#40525A" /><rect x="148" y="11" width="8" height="1" fill="#0B0C14" /><rect x="0" y="16" width="16" height="16" fill="#0B0C14" /><rect x="1" y="16" width="14" height="12" fill="#242936" /><rect x="1" y="16" width="14" height="2" fill="#40525A" /><rect x="1" y="27" width="14" height="2" fill="#69656A" /><rect x="1" y="29" width="14" height="3" fill="#242936" /><rect x="4" y="19" width="1" height="1" fill="#40525A" /><rect x="11" y="23" width="1" height="1" fill="#40525A" /><rect x="16" y="16" width="16" height="16" fill="#0B0C14" /><rect x="17" y="16" width="14" height="12" fill="#242936" /><rect x="17" y="16" width="14" height="2" fill="#40525A" /><rect x="17" y="27" width="14" height="2" fill="#69656A" /><rect x="17" y="29" width="14" height="3" fill="#242936" /><rect x="25" y="19" width="1" height="1" fill="#40525A" /><rect x="21" y="23" width="1" height="1" fill="#40525A" /><line x1="22" y1="19" x2="25" y2="23" stroke="#69656A" stroke-width="1" /><line x1="25" y1="23" x2="23" y2="27" stroke="#69656A" stroke-width="1" /><rect x="32" y="16" width="16" height="16" fill="#0B0C14" /><rect x="33" y="16" width="14" height="12" fill="#242936" /><rect x="33" y="16" width="14" height="2" fill="#40525A" /><rect x="33" y="27" width="14" height="2" fill="#69656A" /><rect x="33" y="29" width="14" height="3" fill="#242936" /><rect x="36" y="19" width="1" height="1" fill="#40525A" /><rect x="43" y="23" width="1" height="1" fill="#40525A" /><rect x="34" y="20" width="2" height="1" fill="#69656A" /><rect x="44" y="25" width="2" height="1" fill="#40525A" /><rect x="48" y="16" width="16" height="16" fill="#0B0C14" /><rect x="49" y="16" width="14" height="12" fill="#242936" /><rect x="49" y="16" width="14" height="2" fill="#40525A" /><rect x="49" y="27" width="14" height="2" fill="#69656A" /><rect x="49" y="29" width="14" height="3" fill="#242936" /><rect x="57" y="19" width="1" height="1" fill="#40525A" /><rect x="53" y="23" width="1" height="1" fill="#40525A" /><rect x="50" y="19" width="12" height="1" fill="#69656A" /><rect x="50" y="24" width="12" height="1" fill="#40525A" /><rect x="64" y="16" width="16" height="16" fill="#0B0C14" /><rect x="68" y="16" width="12" height="16" fill="#242936" /><rect x="68" y="16" width="12" height="2" fill="#40525A" /><rect x="68" y="27" width="12" height="2" fill="#69656A" /><rect x="64" y="16" width="4" height="16" fill="#40525A" /><rect x="67" y="18" width="1" height="10" fill="#69656A" /><rect x="80" y="16" width="16" height="16" fill="#0B0C14" /><rect x="80" y="16" width="12" height="16" fill="#242936" /><rect x="80" y="16" width="12" height="2" fill="#40525A" /><rect x="80" y="27" width="12" height="2" fill="#69656A" /><rect x="92" y="16" width="4" height="16" fill="#40525A" /><rect x="91" y="18" width="1" height="10" fill="#69656A" /><rect x="96" y="16" width="16" height="16" fill="#0B0C14" /><rect x="100" y="16" width="12" height="16" fill="#242936" /><rect x="100" y="16" width="3" height="16" fill="#303746" /><rect x="103" y="18" width="1" height="10" fill="#40525A" /><rect x="103" y="28" width="9" height="3" fill="#69656A" /><rect x="112" y="16" width="16" height="16" fill="#0B0C14" /><rect x="112" y="16" width="12" height="16" fill="#242936" /><rect x="121" y="16" width="3" height="16" fill="#303746" /><rect x="120" y="18" width="1" height="10" fill="#40525A" /><rect x="112" y="28" width="9" height="3" fill="#69656A" /><rect x="0" y="32" width="32" height="32" fill="#030407" /><rect x="2" y="33" width="28" height="30" fill="#0B0C14" /><rect x="4" y="35" width="24" height="27" fill="#69656A" /><rect x="6" y="37" width="20" height="25" fill="#242936" /><rect x="8" y="39" width="16" height="7" fill="#40525A" /><rect x="9" y="40" width="14" height="1" fill="#69656A" /><rect x="8" y="48" width="16" height="11" fill="#40525A" /><rect x="9" y="49" width="14" height="1" fill="#69656A" /><rect x="3" y="61" width="26" height="2" fill="#40525A" /><circle cx="22" cy="53" r="1" fill="#C29A5B" /><rect x="32" y="32" width="32" height="32" fill="#030407" /><rect x="34" y="33" width="28" height="30" fill="#0B0C14" /><rect x="36" y="35" width="24" height="27" fill="#69656A" /><rect x="38" y="37" width="20" height="25" fill="#242936" /><rect x="40" y="39" width="16" height="7" fill="#40525A" /><rect x="41" y="40" width="14" height="1" fill="#69656A" /><rect x="40" y="48" width="16" height="11" fill="#40525A" /><rect x="41" y="49" width="14" height="1" fill="#69656A" /><rect x="35" y="61" width="26" height="2" fill="#40525A" /><circle cx="54" cy="53" r="1" fill="#C29A5B" /><rect x="64" y="32" width="32" height="32" fill="#030407" /><rect x="66" y="33" width="28" height="30" fill="#0B0C14" /><rect x="68" y="35" width="24" height="27" fill="#69656A" /><rect x="70" y="37" width="20" height="25" fill="#0B0C14" /><rect x="72" y="39" width="16" height="7" fill="#242936" /><rect x="73" y="40" width="14" height="1" fill="#69656A" /><rect x="72" y="48" width="16" height="11" fill="#242936" /><rect x="73" y="49" width="14" height="1" fill="#69656A" /><rect x="67" y="61" width="26" height="2" fill="#40525A" /><circle cx="86" cy="53" r="1" fill="#8D3035" /><rect x="96" y="32" width="32" height="32" fill="#030407" /><rect x="98" y="33" width="28" height="31" fill="#0B0C14" /><rect x="101" y="35" width="22" height="29" fill="#030407" /><rect x="99" y="33" width="26" height="3" fill="#69656A" /><rect x="99" y="36" width="3" height="26" fill="#40525A" /><rect x="122" y="36" width="3" height="26" fill="#40525A" /><rect x="100" y="62" width="24" height="2" fill="#242936" /><rect x="0" y="64" width="16" height="16" fill="none" /><polygon points="0,68 2,66 5,67 7,65 10,68 13,66 16,69 16,80 0,80" fill="#69656A" opacity="0.5"/><polygon points="0,74 4,70 8,73 11,69 14,72 16,71 16,80 0,80" fill="#0B0C14" opacity="0.82"/><rect x="16" y="64" width="16" height="16" fill="none" /><polygon points="16,69 18,67 21,66 23,66 26,67 29,67 32,70 32,80 16,80" fill="#69656A" opacity="0.5"/><polygon points="16,75 20,71 24,72 27,70 30,73 32,72 32,80 16,80" fill="#0B0C14" opacity="0.82"/><rect x="32" y="64" width="16" height="16" fill="none" /><polygon points="32,70 34,68 37,65 39,67 42,66 45,68 48,71 48,80 32,80" fill="#69656A" opacity="0.5"/><polygon points="32,76 36,72 40,71 43,71 46,74 48,73 48,80 32,80" fill="#0B0C14" opacity="0.82"/><rect x="48" y="64" width="16" height="16" fill="none" /><polygon points="48,68 50,66 53,67 55,65 58,68 61,66 64,69 64,80 48,80" fill="#8D3035" opacity="0.72"/><polygon points="48,74 52,70 56,73 59,69 62,72 64,71 64,80 48,80" fill="#0B0C14" opacity="0.82"/><rect x="50" y="76" width="3" height="1" fill="#C29A5B" /><rect x="59" y="72" width="2" height="1" fill="#8D3035" /><rect x="64" y="64" width="16" height="16" fill="none" /><polygon points="64,69 66,67 69,66 71,66 74,67 77,67 80,70 80,80 64,80" fill="#8D3035" opacity="0.72"/><polygon points="64,75 68,71 72,72 75,70 78,73 80,72 80,80 64,80" fill="#0B0C14" opacity="0.82"/><rect x="69" y="76" width="3" height="1" fill="#C29A5B" /><rect x="73" y="72" width="2" height="1" fill="#8D3035" /><rect x="80" y="64" width="16" height="16" fill="none" /><polygon points="80,70 82,68 85,65 87,67 90,66 93,68 96,71 96,80 80,80" fill="#8D3035" opacity="0.72"/><polygon points="80,76 84,72 88,71 91,71 94,74 96,73 96,80 80,80" fill="#0B0C14" opacity="0.82"/><rect x="88" y="76" width="3" height="1" fill="#C29A5B" /><rect x="87" y="72" width="2" height="1" fill="#8D3035" /><rect x="0" y="80" width="64" height="16" fill="#0B0C14" /><rect x="0" y="80" width="64" height="3" fill="#69656A" /><rect x="3" y="83" width="58" height="11" fill="#242936" /><rect x="4" y="84" width="56" height="2" fill="#40525A" /><rect x="4" y="93" width="56" height="2" fill="#030407" /><rect x="64" y="80" width="64" height="16" fill="#030407" /><rect x="67" y="81" width="58" height="14" fill="#242936" /><rect x="68" y="82" width="56" height="3" fill="#69656A" /><rect x="69" y="86" width="54" height="8" fill="#0B0C14" /><rect x="72" y="88" width="48" height="1" fill="#40525A" />
</svg>
