<?xml version="1.0" encoding="UTF-8"?>
<svg xmlns="http://www.w3.org/2000/svg" width="256" height="128" viewBox="0 0 256 128" shape-rendering="crispEdges">
<rect x="0" y="0" width="16" height="16" fill="#242936" /><line x1="0" y1="5" x2="16" y2="5" stroke="#0B0C14" stroke-width="1" /><line x1="0" y1="11" x2="16" y2="11" stroke="#0B0C14" stroke-width="1" /><line x1="7" y1="0" x2="7" y2="5" stroke="#40525A" stroke-width="1" /><line x1="3" y1="6" x2="3" y2="11" stroke="#40525A" stroke-width="1" /><line x1="11" y1="12" x2="11" y2="16" stroke="#40525A" stroke-width="1" /><rect x="64" y="0" width="16" height="16" fill="#40525A" /><line x1="72" y1="0" x2="72" y2="16" stroke="#242936" stroke-width="1" /><line x1="64" y1="8" x2="80" y2="8" stroke="#242936" stroke-width="1" /><rect x="16" y="0" width="16" height="16" fill="#242936" /><line x1="16" y1="5" x2="32" y2="5" stroke="#0B0C14" stroke-width="1" /><line x1="16" y1="11" x2="32" y2="11" stroke="#0B0C14" stroke-width="1" /><line x1="24" y1="0" x2="24" y2="5" stroke="#40525A" stroke-width="1" /><line x1="20" y1="6" x2="20" y2="11" stroke="#40525A" stroke-width="1" /><line x1="26" y1="12" x2="26" y2="16" stroke="#40525A" stroke-width="1" /><rect x="80" y="0" width="16" height="16" fill="#40525A" /><line x1="88" y1="0" x2="88" y2="16" stroke="#242936" stroke-width="1" /><line x1="80" y1="8" x2="96" y2="8" stroke="#242936" stroke-width="1" /><rect x="82" y="2" width="2" height="1" fill="#69656A" /><rect x="32" y="0" width="16" height="16" fill="#242936" /><line x1="32" y1="5" x2="48" y2="5" stroke="#0B0C14" stroke-width="1" /><line x1="32" y1="11" x2="48" y2="11" stroke="#0B0C14" stroke-width="1" /><line x1="41" y1="0" x2="41" y2="5" stroke="#40525A" stroke-width="1" /><line x1="37" y1="6" x2="37" y2="11" stroke="#40525A" stroke-width="1" /><line x1="41" y1="12" x2="41" y2="16" stroke="#40525A" stroke-width="1" /><rect x="96" y="0" width="16" height="16" fill="#40525A" /><line x1="104" y1="0" x2="104" y2="16" stroke="#242936" stroke-width="1" /><line x1="96" y1="8" x2="112" y2="8" stroke="#242936" stroke-width="1" /><line x1="106" y1="9" x2="110" y2="13" stroke="#242936" stroke-width="1" /><rect x="48" y="0" width="16" height="16" fill="#242936" /><line x1="48" y1="5" x2="64" y2="5" stroke="#0B0C14" stroke-width="1" /><line x1="48" y1="11" x2="64" y2="11" stroke="#0B0C14" stroke-width="1" /><line x1="58" y1="0" x2="58" y2="5" stroke="#40525A" stroke-width="1" /><line x1="54" y1="6" x2="54" y2="11" stroke="#40525A" stroke-width="1" /><line x1="56" y1="12" x2="56" y2="16" stroke="#40525A" stroke-width="1" /><rect x="112" y="0" width="16" height="16" fill="#40525A" /><line x1="120" y1="0" x2="120" y2="16" stroke="#242936" stroke-width="1" /><line x1="112" y1="8" x2="128" y2="8" stroke="#242936" stroke-width="1" /><rect x="114" y="2" width="2" height="1" fill="#69656A" /><line x1="122" y1="9" x2="126" y2="13" stroke="#242936" stroke-width="1" /><rect x="128" y="0" width="16" height="16" fill="#8D3035" /><rect x="130" y="2" width="12" height="12" fill="#242936" /><line x1="130" y1="8" x2="142" y2="8" stroke="#69656A" stroke-width="1" /><rect x="144" y="0" width="16" height="16" fill="#69656A" /><rect x="146" y="2" width="12" height="12" fill="#242936" /><rect x="0" y="16" width="16" height="16" fill="#242936" /><rect x="0" y="16" width="16" height="3" fill="#40525A" /><rect x="0" y="29" width="16" height="3" fill="#0B0C14" /><rect x="16" y="16" width="16" height="16" fill="#242936" /><rect x="16" y="16" width="16" height="3" fill="#40525A" /><rect x="16" y="29" width="16" height="3" fill="#0B0C14" /><line x1="21" y1="19" x2="25" y2="24" stroke="#69656A" stroke-width="1" /><line x1="25" y1="24" x2="23" y2="28" stroke="#69656A" stroke-width="1" /><rect x="32" y="16" width="16" height="16" fill="#242936" /><rect x="32" y="16" width="16" height="3" fill="#40525A" /><rect x="32" y="29" width="16" height="3" fill="#0B0C14" /><rect x="34" y="20" width="2" height="2" fill="#69656A" /><rect x="43" y="24" width="2" height="1" fill="#40525A" /><rect x="48" y="16" width="16" height="16" fill="#242936" /><rect x="48" y="16" width="16" height="3" fill="#40525A" /><rect x="48" y="29" width="16" height="3" fill="#0B0C14" /><rect x="49" y="18" width="14" height="1" fill="#69656A" /><rect x="49" y="25" width="14" height="1" fill="#69656A" /><rect x="64" y="16" width="16" height="16" fill="#242936" /><rect x="64" y="16" width="4" height="16" fill="#40525A" /><rect x="68" y="16" width="12" height="3" fill="#69656A" /><rect x="80" y="16" width="16" height="16" fill="#242936" /><rect x="92" y="16" width="4" height="16" fill="#40525A" /><rect x="80" y="16" width="12" height="3" fill="#69656A" /><rect x="0" y="32" width="32" height="32" fill="#0B0C14" /><rect x="3" y="34" width="26" height="28" fill="#242936" /><rect x="6" y="37" width="20" height="24" fill="#40525A" /><rect x="8" y="39" width="16" height="2" fill="#69656A" /><rect x="8" y="44" width="16" height="1" fill="#69656A" /><circle cx="23" cy="49" r="1" fill="#C29A5B" /><rect x="32" y="32" width="32" height="32" fill="#0B0C14" /><rect x="35" y="34" width="26" height="28" fill="#242936" /><rect x="38" y="37" width="20" height="24" fill="#40525A" /><rect x="40" y="39" width="16" height="2" fill="#69656A" /><rect x="40" y="44" width="16" height="1" fill="#69656A" /><circle cx="55" cy="49" r="1" fill="#C29A5B" /><rect x="64" y="32" width="32" height="32" fill="#0B0C14" /><rect x="67" y="34" width="26" height="28" fill="#242936" /><rect x="70" y="37" width="20" height="24" fill="#0B0C14" /><rect x="72" y="39" width="16" height="2" fill="#69656A" /><rect x="72" y="44" width="16" height="1" fill="#69656A" /><circle cx="87" cy="49" r="1" fill="#8D3035" /><rect x="96" y="32" width="32" height="32" fill="none" stroke="#40525A" stroke-width="3"/><rect x="101" y="32" width="22" height="4" fill="#69656A" /><rect x="0" y="64" width="16" height="16" fill="none" /><polygon points="0,64 5,68 8,65 12,72 16,67" fill="#69656A" opacity="0.65"/><rect x="0" y="75" width="4" height="2" fill="#0B0C14" /><rect x="16" y="64" width="16" height="16" fill="none" /><polygon points="16,67 21,68 24,65 28,72 32,70" fill="#69656A" opacity="0.65"/><rect x="19" y="75" width="4" height="2" fill="#0B0C14" /><rect x="32" y="64" width="16" height="16" fill="none" /><polygon points="32,70 37,68 40,65 44,72 48,64" fill="#69656A" opacity="0.65"/><rect x="38" y="75" width="4" height="2" fill="#0B0C14" /><rect x="48" y="64" width="16" height="16" fill="none" /><polygon points="48,64 53,68 56,65 60,72 64,67" fill="#8D3035" opacity="0.75"/><rect x="57" y="75" width="4" height="2" fill="#0B0C14" /><rect x="64" y="64" width="16" height="16" fill="none" /><polygon points="64,67 69,68 72,65 76,72 80,70" fill="#8D3035" opacity="0.75"/><rect x="65" y="75" width="4" height="2" fill="#0B0C14" /><rect x="80" y="64" width="16" height="16" fill="none" /><polygon points="80,70 85,68 88,65 92,72 96,64" fill="#8D3035" opacity="0.75"/><rect x="84" y="75" width="4" height="2" fill="#0B0C14" /><rect x="0" y="80" width="64" height="16" fill="#242936" /><rect x="0" y="80" width="64" height="4" fill="#40525A" /><rect x="4" y="85" width="56" height="9" fill="#0B0C14" /><rect x="64" y="80" width="64" height="16" fill="#0B0C14" /><rect x="68" y="82" width="56" height="12" fill="#242936" />
</svg>
