<?xml version="1.0" encoding="UTF-8"?>
<svg xmlns="http://www.w3.org/2000/svg" width="512" height="256" viewBox="0 0 512 256" shape-rendering="crispEdges">
<rect x="5" y="6" width="5" height="1" fill="#69656A" opacity="0.45"/><rect x="20" y="17" width="7" height="1" fill="#40525A" opacity="0.55"/><rect x="10" y="27" width="3" height="1" fill="#69656A" opacity="0.35"/><rect x="133" y="5" width="6" height="1" fill="#C8BFAE" opacity="0.18"/><rect x="148" y="20" width="4" height="1" fill="#69656A" opacity="0.32"/><rect x="7" y="39" width="2" height="1" fill="#69656A" opacity="0.4"/><rect x="22" y="49" width="3" height="1" fill="#40525A" opacity="0.38"/><rect x="40" y="6" width="5" height="1" fill="#69656A" opacity="0.45"/><rect x="50" y="17" width="7" height="1" fill="#40525A" opacity="0.55"/><rect x="43" y="27" width="3" height="1" fill="#69656A" opacity="0.35"/><rect x="165" y="5" width="6" height="1" fill="#C8BFAE" opacity="0.18"/><rect x="180" y="20" width="4" height="1" fill="#69656A" opacity="0.32"/><rect x="43" y="39" width="2" height="1" fill="#69656A" opacity="0.4"/><rect x="52" y="49" width="3" height="1" fill="#40525A" opacity="0.38"/><rect x="75" y="6" width="5" height="1" fill="#69656A" opacity="0.45"/><rect x="80" y="17" width="7" height="1" fill="#40525A" opacity="0.55"/><rect x="76" y="27" width="3" height="1" fill="#69656A" opacity="0.35"/><rect x="197" y="5" width="6" height="1" fill="#C8BFAE" opacity="0.18"/><rect x="212" y="20" width="4" height="1" fill="#69656A" opacity="0.32"/><rect x="79" y="39" width="2" height="1" fill="#69656A" opacity="0.4"/><rect x="82" y="49" width="3" height="1" fill="#40525A" opacity="0.38"/><rect x="110" y="6" width="5" height="1" fill="#69656A" opacity="0.45"/><rect x="110" y="17" width="7" height="1" fill="#40525A" opacity="0.55"/><rect x="109" y="27" width="3" height="1" fill="#69656A" opacity="0.35"/><rect x="229" y="5" width="6" height="1" fill="#C8BFAE" opacity="0.18"/><rect x="244" y="20" width="4" height="1" fill="#69656A" opacity="0.32"/><rect x="115" y="39" width="2" height="1" fill="#69656A" opacity="0.4"/><rect x="112" y="49" width="3" height="1" fill="#40525A" opacity="0.38"/><rect x="17" y="82" width="27" height="1" fill="#69656A" opacity="0.5"/><rect x="18" y="96" width="25" height="1" fill="#40525A" opacity="0.42"/><rect x="20" y="110" width="18" height="1" fill="#69656A" opacity="0.35"/><rect x="81" y="82" width="27" height="1" fill="#69656A" opacity="0.5"/><rect x="82" y="96" width="25" height="1" fill="#40525A" opacity="0.42"/><rect x="84" y="110" width="18" height="1" fill="#69656A" opacity="0.35"/><rect x="145" y="82" width="27" height="1" fill="#69656A" opacity="0.5"/><rect x="146" y="96" width="25" height="1" fill="#40525A" opacity="0.42"/><rect x="148" y="110" width="18" height="1" fill="#69656A" opacity="0.35"/><rect x="4" y="147" width="5" height="1" fill="#69656A" opacity="0.5"/><rect x="20" y="153" width="2" height="1" fill="#242936" opacity="0.55"/><rect x="43" y="147" width="5" height="1" fill="#69656A" opacity="0.5"/><rect x="44" y="153" width="2" height="1" fill="#242936" opacity="0.55"/><rect x="82" y="147" width="5" height="1" fill="#69656A" opacity="0.5"/><rect x="84" y="153" width="2" height="1" fill="#242936" opacity="0.55"/><rect x="100" y="147" width="5" height="1" fill="#8D3035" opacity="0.5"/><rect x="108" y="153" width="2" height="1" fill="#C29A5B" opacity="0.55"/><rect x="139" y="147" width="5" height="1" fill="#8D3035" opacity="0.5"/><rect x="148" y="153" width="2" height="1" fill="#C29A5B" opacity="0.55"/><rect x="178" y="147" width="5" height="1" fill="#8D3035" opacity="0.5"/><rect x="172" y="153" width="2" height="1" fill="#C29A5B" opacity="0.55"/>
</svg>
