<?xml version="1.0" encoding="UTF-8"?>
<svg xmlns="http://www.w3.org/2000/svg" width="256" height="256" viewBox="0 0 256 256" shape-rendering="crispEdges">
<rect x="0" y="0" width="256" height="4" fill="#030407" opacity="0.78"/><rect x="0" y="124" width="256" height="4" fill="#030407" opacity="0.78"/><rect x="0" y="4" width="4" height="120" fill="#030407" opacity="0.78"/><rect x="252" y="4" width="4" height="120" fill="#030407" opacity="0.78"/><rect x="4" y="4" width="248" height="4" fill="#030407" opacity="0.71"/><rect x="4" y="120" width="248" height="4" fill="#030407" opacity="0.71"/><rect x="4" y="8" width="4" height="112" fill="#030407" opacity="0.71"/><rect x="248" y="8" width="4" height="112" fill="#030407" opacity="0.71"/><rect x="8" y="8" width="240" height="4" fill="#030407" opacity="0.63"/><rect x="8" y="116" width="240" height="4" fill="#030407" opacity="0.63"/><rect x="8" y="12" width="4" height="104" fill="#030407" opacity="0.63"/><rect x="244" y="12" width="4" height="104" fill="#030407" opacity="0.63"/><rect x="12" y="12" width="232" height="4" fill="#030407" opacity="0.56"/><rect x="12" y="112" width="232" height="4" fill="#030407" opacity="0.56"/><rect x="12" y="16" width="4" height="96" fill="#030407" opacity="0.56"/><rect x="240" y="16" width="4" height="96" fill="#030407" opacity="0.56"/><rect x="16" y="16" width="224" height="4" fill="#030407" opacity="0.48"/><rect x="16" y="108" width="224" height="4" fill="#030407" opacity="0.48"/><rect x="16" y="20" width="4" height="88" fill="#030407" opacity="0.48"/><rect x="236" y="20" width="4" height="88" fill="#030407" opacity="0.48"/><rect x="20" y="20" width="216" height="4" fill="#030407" opacity="0.41"/><rect x="20" y="104" width="216" height="4" fill="#030407" opacity="0.41"/><rect x="20" y="24" width="4" height="80" fill="#030407" opacity="0.41"/><rect x="232" y="24" width="4" height="80" fill="#030407" opacity="0.41"/><rect x="24" y="24" width="208" height="4" fill="#030407" opacity="0.33"/><rect x="24" y="100" width="208" height="4" fill="#030407" opacity="0.33"/><rect x="24" y="28" width="4" height="72" fill="#030407" opacity="0.33"/><rect x="228" y="28" width="4" height="72" fill="#030407" opacity="0.33"/><rect x="28" y="28" width="200" height="4" fill="#030407" opacity="0.26"/><rect x="28" y="96" width="200" height="4" fill="#030407" opacity="0.26"/><rect x="28" y="32" width="4" height="64" fill="#030407" opacity="0.26"/><rect x="224" y="32" width="4" height="64" fill="#030407" opacity="0.26"/><rect x="0" y="128" width="256" height="128" fill="#030407" opacity="0.18"/><rect x="0" y="128" width="8" height="18" fill="#0B0C14" opacity="0.94"/><rect x="2" y="144" width="3" height="1" fill="#8D3035" opacity="0.65"/><rect x="4" y="148" width="2" height="2" fill="#C29A5B" opacity="0.52"/><rect x="8" y="128" width="8" height="16" fill="#0B0C14" opacity="0.94"/><rect x="16" y="128" width="8" height="20" fill="#0B0C14" opacity="0.94"/><rect x="24" y="128" width="8" height="14" fill="#0B0C14" opacity="0.94"/><rect x="26" y="140" width="3" height="1" fill="#8D3035" opacity="0.65"/><rect x="32" y="128" width="8" height="22" fill="#0B0C14" opacity="0.94"/><rect x="40" y="128" width="8" height="17" fill="#0B0C14" opacity="0.94"/><rect x="48" y="128" width="8" height="25" fill="#0B0C14" opacity="0.94"/><rect x="50" y="151" width="3" height="1" fill="#8D3035" opacity="0.65"/><rect x="56" y="128" width="8" height="15" fill="#0B0C14" opacity="0.94"/><rect x="60" y="145" width="2" height="2" fill="#C29A5B" opacity="0.52"/><rect x="64" y="128" width="8" height="19" fill="#0B0C14" opacity="0.94"/><rect x="72" y="128" width="8" height="13" fill="#0B0C14" opacity="0.94"/><rect x="74" y="139" width="3" height="1" fill="#8D3035" opacity="0.65"/><rect x="80" y="128" width="8" height="23" fill="#0B0C14" opacity="0.94"/><rect x="88" y="128" width="8" height="18" fill="#0B0C14" opacity="0.94"/><rect x="96" y="128" width="8" height="26" fill="#0B0C14" opacity="0.94"/><rect x="98" y="152" width="3" height="1" fill="#8D3035" opacity="0.65"/><rect x="104" y="128" width="8" height="16" fill="#0B0C14" opacity="0.94"/><rect x="112" y="128" width="8" height="21" fill="#0B0C14" opacity="0.94"/><rect x="116" y="151" width="2" height="2" fill="#C29A5B" opacity="0.52"/><rect x="120" y="128" width="8" height="14" fill="#0B0C14" opacity="0.94"/><rect x="122" y="140" width="3" height="1" fill="#8D3035" opacity="0.65"/><rect x="128" y="128" width="8" height="24" fill="#0B0C14" opacity="0.94"/><rect x="136" y="128" width="8" height="17" fill="#0B0C14" opacity="0.94"/><rect x="144" y="128" width="8" height="20" fill="#0B0C14" opacity="0.94"/><rect x="146" y="146" width="3" height="1" fill="#8D3035" opacity="0.65"/><rect x="152" y="128" width="8" height="15" fill="#0B0C14" opacity="0.94"/><rect x="160" y="128" width="8" height="27" fill="#0B0C14" opacity="0.94"/><rect x="168" y="128" width="8" height="18" fill="#0B0C14" opacity="0.94"/><rect x="170" y="144" width="3" height="1" fill="#8D3035" opacity="0.65"/><rect x="172" y="148" width="2" height="2" fill="#C29A5B" opacity="0.52"/><rect x="176" y="128" width="8" height="23" fill="#0B0C14" opacity="0.94"/><rect x="184" y="128" width="8" height="16" fill="#0B0C14" opacity="0.94"/><rect x="192" y="128" width="8" height="20" fill="#0B0C14" opacity="0.94"/><rect x="194" y="146" width="3" height="1" fill="#8D3035" opacity="0.65"/><rect x="200" y="128" width="8" height="14" fill="#0B0C14" opacity="0.94"/><rect x="208" y="128" width="8" height="22" fill="#0B0C14" opacity="0.94"/><rect x="216" y="128" width="8" height="17" fill="#0B0C14" opacity="0.94"/><rect x="218" y="143" width="3" height="1" fill="#8D3035" opacity="0.65"/><rect x="224" y="128" width="8" height="25" fill="#0B0C14" opacity="0.94"/><rect x="228" y="155" width="2" height="2" fill="#C29A5B" opacity="0.52"/><rect x="232" y="128" width="8" height="19" fill="#0B0C14" opacity="0.94"/><rect x="240" y="128" width="8" height="23" fill="#0B0C14" opacity="0.94"/><rect x="242" y="149" width="3" height="1" fill="#8D3035" opacity="0.65"/><rect x="248" y="128" width="8" height="15" fill="#0B0C14" opacity="0.94"/><polygon points="0,147 12,151 17,154 10,159 0,162" fill="#0B0C14" opacity="0.9"/><polygon points="256,146 244,150 239,155 246,159 256,162" fill="#0B0C14" opacity="0.9"/><rect x="3" y="154" width="3" height="1" fill="#8D3035" opacity="0.6"/><rect x="248" y="152" width="3" height="1" fill="#8D3035" opacity="0.6"/><polygon points="0,160 17,164 22,167 15,172 0,175" fill="#0B0C14" opacity="0.9"/><polygon points="256,159 239,163 234,168 241,172 256,175" fill="#0B0C14" opacity="0.9"/><rect x="4" y="167" width="3" height="1" fill="#8D3035" opacity="0.6"/><rect x="247" y="165" width="3" height="1" fill="#8D3035" opacity="0.6"/><polygon points="0,174 22,178 27,181 20,186 0,189" fill="#0B0C14" opacity="0.9"/><polygon points="256,173 234,177 229,182 236,186 256,189" fill="#0B0C14" opacity="0.9"/><rect x="5" y="181" width="3" height="1" fill="#8D3035" opacity="0.6"/><rect x="246" y="179" width="3" height="1" fill="#8D3035" opacity="0.6"/><polygon points="0,189 12,193 17,196 10,201 0,204" fill="#0B0C14" opacity="0.9"/><polygon points="256,188 244,192 239,197 246,201 256,204" fill="#0B0C14" opacity="0.9"/><rect x="6" y="196" width="3" height="1" fill="#8D3035" opacity="0.6"/><rect x="245" y="194" width="3" height="1" fill="#8D3035" opacity="0.6"/><polygon points="0,205 17,209 22,212 15,217 0,220" fill="#0B0C14" opacity="0.9"/><polygon points="256,204 239,208 234,213 241,217 256,220" fill="#0B0C14" opacity="0.9"/><rect x="7" y="212" width="3" height="1" fill="#8D3035" opacity="0.6"/><rect x="244" y="210" width="3" height="1" fill="#8D3035" opacity="0.6"/><polygon points="0,222 22,226 27,229 20,234 0,237" fill="#0B0C14" opacity="0.9"/><polygon points="256,221 234,225 229,230 236,234 256,237" fill="#0B0C14" opacity="0.9"/><rect x="8" y="229" width="3" height="1" fill="#8D3035" opacity="0.6"/><rect x="243" y="227" width="3" height="1" fill="#8D3035" opacity="0.6"/><polygon points="0,236 12,240 17,243 10,248 0,251" fill="#0B0C14" opacity="0.9"/><polygon points="256,235 244,239 239,244 246,248 256,251" fill="#0B0C14" opacity="0.9"/><rect x="9" y="243" width="3" height="1" fill="#8D3035" opacity="0.6"/><rect x="242" y="241" width="3" height="1" fill="#8D3035" opacity="0.6"/><rect x="24" y="236" width="208" height="20" fill="#0B0C14" opacity="0.92"/><rect x="42" y="231" width="172" height="8" fill="#0B0C14" opacity="0.76"/><rect x="74" y="229" width="4" height="1" fill="#C29A5B" opacity="0.5"/><rect x="181" y="234" width="6" height="1" fill="#8D3035" opacity="0.6"/>
</svg>
