<?xml version="1.0" encoding="UTF-8"?>
<svg xmlns="http://www.w3.org/2000/svg" width="256" height="256" viewBox="0 0 256 256" shape-rendering="crispEdges">
<rect x="0" y="0" width="256" height="8" fill="#030407" opacity="0.82"/><rect x="0" y="120" width="256" height="8" fill="#030407" opacity="0.82"/><rect x="0" y="8" width="8" height="104" fill="#030407" opacity="0.82"/><rect x="248" y="8" width="8" height="104" fill="#030407" opacity="0.82"/><rect x="8" y="8" width="240" height="8" fill="#030407" opacity="0.65"/><rect x="8" y="112" width="240" height="8" fill="#030407" opacity="0.65"/><rect x="8" y="16" width="8" height="88" fill="#030407" opacity="0.65"/><rect x="240" y="16" width="8" height="88" fill="#030407" opacity="0.65"/><rect x="16" y="16" width="224" height="8" fill="#030407" opacity="0.48"/><rect x="16" y="104" width="224" height="8" fill="#030407" opacity="0.48"/><rect x="16" y="24" width="8" height="72" fill="#030407" opacity="0.48"/><rect x="232" y="24" width="8" height="72" fill="#030407" opacity="0.48"/><rect x="24" y="24" width="208" height="8" fill="#030407" opacity="0.31"/><rect x="24" y="96" width="208" height="8" fill="#030407" opacity="0.31"/><rect x="24" y="32" width="8" height="56" fill="#030407" opacity="0.31"/><rect x="224" y="32" width="8" height="56" fill="#030407" opacity="0.31"/><rect x="180" y="230" width="2" height="2" fill="#8D3035" opacity="0.29"/><rect x="3" y="233" width="2" height="2" fill="#8D3035" opacity="0.44"/><rect x="225" y="234" width="4" height="2" fill="#8D3035" opacity="0.23"/><rect x="252" y="129" width="4" height="1" fill="#8D3035" opacity="0.45"/><rect x="198" y="254" width="3" height="1" fill="#8D3035" opacity="0.51"/><rect x="39" y="145" width="1" height="2" fill="#8D3035" opacity="0.21"/><rect x="106" y="247" width="1" height="1" fill="#8D3035" opacity="0.37"/><rect x="15" y="133" width="1" height="2" fill="#8D3035" opacity="0.30"/><rect x="186" y="241" width="2" height="1" fill="#8D3035" opacity="0.34"/><rect x="16" y="153" width="3" height="2" fill="#8D3035" opacity="0.58"/><rect x="30" y="241" width="1" height="1" fill="#8D3035" opacity="0.55"/><rect x="174" y="253" width="1" height="1" fill="#8D3035" opacity="0.64"/><rect x="22" y="132" width="2" height="1" fill="#8D3035" opacity="0.64"/><rect x="118" y="233" width="2" height="2" fill="#8D3035" opacity="0.55"/><rect x="11" y="237" width="2" height="2" fill="#8D3035" opacity="0.55"/><rect x="76" y="153" width="3" height="2" fill="#8D3035" opacity="0.23"/><rect x="92" y="244" width="3" height="1" fill="#C29A5B" opacity="0.51"/><rect x="156" y="150" width="1" height="1" fill="#8D3035" opacity="0.64"/><rect x="179" y="248" width="3" height="2" fill="#C29A5B" opacity="0.24"/><rect x="16" y="246" width="1" height="1" fill="#C29A5B" opacity="0.26"/><rect x="221" y="147" width="1" height="2" fill="#C29A5B" opacity="0.64"/><rect x="144" y="250" width="4" height="2" fill="#8D3035" opacity="0.46"/><rect x="249" y="141" width="1" height="1" fill="#8D3035" opacity="0.35"/><rect x="229" y="134" width="3" height="2" fill="#8D3035" opacity="0.42"/><rect x="188" y="243" width="1" height="2" fill="#8D3035" opacity="0.60"/><rect x="43" y="149" width="4" height="2" fill="#8D3035" opacity="0.38"/><rect x="205" y="247" width="4" height="1" fill="#8D3035" opacity="0.52"/><rect x="86" y="233" width="3" height="1" fill="#8D3035" opacity="0.33"/><rect x="35" y="148" width="1" height="2" fill="#8D3035" opacity="0.38"/><rect x="19" y="251" width="4" height="2" fill="#8D3035" opacity="0.39"/><rect x="184" y="236" width="2" height="1" fill="#C29A5B" opacity="0.42"/><rect x="13" y="136" width="2" height="1" fill="#8D3035" opacity="0.23"/><rect x="193" y="146" width="1" height="1" fill="#8D3035" opacity="0.48"/><rect x="5" y="254" width="3" height="1" fill="#8D3035" opacity="0.19"/><rect x="128" y="132" width="1" height="1" fill="#8D3035" opacity="0.38"/><rect x="229" y="150" width="2" height="2" fill="#C29A5B" opacity="0.49"/><rect x="2" y="138" width="2" height="2" fill="#C29A5B" opacity="0.63"/><rect x="8" y="229" width="2" height="1" fill="#8D3035" opacity="0.46"/><rect x="116" y="232" width="2" height="1" fill="#8D3035" opacity="0.19"/><rect x="200" y="242" width="2" height="1" fill="#C29A5B" opacity="0.60"/><rect x="189" y="233" width="1" height="2" fill="#8D3035" opacity="0.40"/><rect x="108" y="135" width="2" height="1" fill="#8D3035" opacity="0.63"/><rect x="55" y="131" width="3" height="1" fill="#8D3035" opacity="0.22"/><rect x="222" y="228" width="3" height="2" fill="#8D3035" opacity="0.46"/><rect x="42" y="240" width="3" height="2" fill="#8D3035" opacity="0.20"/><rect x="165" y="155" width="1" height="1" fill="#8D3035" opacity="0.67"/><rect x="9" y="138" width="3" height="1" fill="#8D3035" opacity="0.22"/><rect x="194" y="138" width="2" height="1" fill="#8D3035" opacity="0.44"/><rect x="94" y="246" width="3" height="1" fill="#C29A5B" opacity="0.33"/><rect x="104" y="239" width="3" height="1" fill="#8D3035" opacity="0.50"/><rect x="226" y="154" width="2" height="1" fill="#8D3035" opacity="0.23"/><rect x="185" y="244" width="2" height="2" fill="#8D3035" opacity="0.67"/><rect x="188" y="233" width="4" height="2" fill="#C29A5B" opacity="0.53"/><rect x="158" y="134" width="1" height="2" fill="#C29A5B" opacity="0.65"/><rect x="230" y="139" width="2" height="2" fill="#8D3035" opacity="0.25"/><rect x="49" y="244" width="4" height="1" fill="#C29A5B" opacity="0.34"/><rect x="238" y="233" width="3" height="2" fill="#8D3035" opacity="0.55"/><rect x="23" y="135" width="3" height="2" fill="#C29A5B" opacity="0.44"/><rect x="1" y="230" width="3" height="2" fill="#8D3035" opacity="0.33"/><rect x="241" y="239" width="4" height="2" fill="#C29A5B" opacity="0.25"/><rect x="118" y="141" width="3" height="1" fill="#C29A5B" opacity="0.22"/><rect x="3" y="236" width="1" height="1" fill="#8D3035" opacity="0.40"/><rect x="184" y="243" width="4" height="1" fill="#8D3035" opacity="0.39"/><rect x="204" y="250" width="4" height="2" fill="#C29A5B" opacity="0.56"/><rect x="228" y="241" width="1" height="2" fill="#C29A5B" opacity="0.27"/><rect x="158" y="229" width="2" height="1" fill="#8D3035" opacity="0.64"/><rect x="118" y="254" width="1" height="2" fill="#8D3035" opacity="0.35"/><rect x="192" y="141" width="2" height="1" fill="#8D3035" opacity="0.30"/><rect x="44" y="134" width="4" height="2" fill="#8D3035" opacity="0.42"/><rect x="173" y="229" width="4" height="1" fill="#8D3035" opacity="0.58"/><rect x="231" y="247" width="1" height="1" fill="#8D3035" opacity="0.46"/><rect x="202" y="253" width="4" height="2" fill="#C29A5B" opacity="0.30"/><rect x="200" y="146" width="3" height="1" fill="#8D3035" opacity="0.58"/><rect x="151" y="254" width="1" height="1" fill="#8D3035" opacity="0.46"/><rect x="42" y="137" width="2" height="1" fill="#8D3035" opacity="0.31"/><rect x="231" y="132" width="3" height="1" fill="#8D3035" opacity="0.39"/><rect x="141" y="233" width="4" height="1" fill="#8D3035" opacity="0.61"/><rect x="69" y="137" width="2" height="2" fill="#8D3035" opacity="0.32"/><rect x="228" y="241" width="1" height="1" fill="#8D3035" opacity="0.51"/><rect x="248" y="128" width="4" height="2" fill="#C29A5B" opacity="0.23"/><rect x="97" y="231" width="3" height="2" fill="#8D3035" opacity="0.36"/><rect x="32" y="134" width="3" height="2" fill="#8D3035" opacity="0.66"/><rect x="133" y="249" width="1" height="2" fill="#8D3035" opacity="0.38"/><rect x="143" y="229" width="3" height="1" fill="#C29A5B" opacity="0.39"/><rect x="66" y="229" width="2" height="1" fill="#8D3035" opacity="0.33"/><rect x="202" y="250" width="3" height="1" fill="#8D3035" opacity="0.59"/><rect x="72" y="248" width="2" height="2" fill="#C29A5B" opacity="0.43"/><rect x="220" y="148" width="1" height="1" fill="#8D3035" opacity="0.32"/><rect x="60" y="250" width="2" height="2" fill="#8D3035" opacity="0.58"/><rect x="109" y="132" width="1" height="2" fill="#8D3035" opacity="0.63"/><rect x="180" y="243" width="4" height="1" fill="#C29A5B" opacity="0.49"/><rect x="50" y="245" width="4" height="2" fill="#C29A5B" opacity="0.55"/><rect x="85" y="250" width="4" height="2" fill="#C29A5B" opacity="0.32"/><rect x="184" y="147" width="3" height="1" fill="#C29A5B" opacity="0.56"/><rect x="190" y="138" width="1" height="2" fill="#8D3035" opacity="0.33"/><rect x="233" y="134" width="3" height="2" fill="#C29A5B" opacity="0.46"/><rect x="120" y="145" width="3" height="2" fill="#8D3035" opacity="0.44"/><rect x="243" y="231" width="1" height="1" fill="#C29A5B" opacity="0.21"/><rect x="186" y="252" width="3" height="2" fill="#8D3035" opacity="0.62"/><rect x="148" y="129" width="1" height="2" fill="#C29A5B" opacity="0.37"/><rect x="235" y="139" width="2" height="1" fill="#8D3035" opacity="0.52"/><rect x="179" y="245" width="4" height="2" fill="#8D3035" opacity="0.53"/><rect x="197" y="240" width="2" height="2" fill="#8D3035" opacity="0.47"/><rect x="194" y="154" width="2" height="1" fill="#8D3035" opacity="0.34"/><rect x="232" y="242" width="3" height="1" fill="#8D3035" opacity="0.54"/><rect x="30" y="150" width="4" height="1" fill="#8D3035" opacity="0.41"/><rect x="91" y="236" width="1" height="1" fill="#8D3035" opacity="0.68"/><rect x="210" y="251" width="4" height="2" fill="#8D3035" opacity="0.29"/><rect x="76" y="228" width="3" height="1" fill="#C29A5B" opacity="0.51"/><rect x="201" y="245" width="3" height="1" fill="#C29A5B" opacity="0.37"/><rect x="58" y="141" width="1" height="1" fill="#8D3035" opacity="0.42"/><rect x="140" y="239" width="1" height="1" fill="#8D3035" opacity="0.63"/><rect x="137" y="141" width="1" height="2" fill="#8D3035" opacity="0.37"/><rect x="154" y="136" width="1" height="2" fill="#C29A5B" opacity="0.34"/><rect x="205" y="148" width="3" height="2" fill="#C29A5B" opacity="0.63"/><rect x="125" y="232" width="1" height="2" fill="#8D3035" opacity="0.59"/><rect x="65" y="154" width="2" height="2" fill="#C29A5B" opacity="0.35"/><rect x="65" y="128" width="4" height="1" fill="#8D3035" opacity="0.49"/><rect x="183" y="136" width="3" height="2" fill="#C29A5B" opacity="0.30"/><rect x="85" y="232" width="2" height="1" fill="#C29A5B" opacity="0.40"/><rect x="63" y="231" width="1" height="2" fill="#C29A5B" opacity="0.22"/><rect x="41" y="241" width="1" height="1" fill="#8D3035" opacity="0.49"/><rect x="65" y="138" width="2" height="2" fill="#8D3035" opacity="0.21"/><rect x="195" y="137" width="3" height="1" fill="#8D3035" opacity="0.61"/><rect x="182" y="149" width="1" height="1" fill="#8D3035" opacity="0.35"/><rect x="250" y="141" width="3" height="1" fill="#C29A5B" opacity="0.35"/><rect x="192" y="129" width="1" height="2" fill="#8D3035" opacity="0.25"/><rect x="133" y="228" width="2" height="1" fill="#8D3035" opacity="0.42"/><rect x="233" y="140" width="4" height="2" fill="#8D3035" opacity="0.48"/><rect x="10" y="132" width="1" height="1" fill="#8D3035" opacity="0.68"/><rect x="55" y="133" width="2" height="2" fill="#8D3035" opacity="0.33"/><rect x="174" y="133" width="1" height="2" fill="#8D3035" opacity="0.27"/><rect x="188" y="251" width="2" height="2" fill="#8D3035" opacity="0.65"/><rect x="89" y="232" width="3" height="1" fill="#8D3035" opacity="0.51"/><rect x="194" y="240" width="1" height="1" fill="#8D3035" opacity="0.53"/><rect x="97" y="246" width="2" height="2" fill="#8D3035" opacity="0.60"/><rect x="193" y="128" width="4" height="1" fill="#8D3035" opacity="0.44"/><rect x="241" y="147" width="4" height="2" fill="#C29A5B" opacity="0.47"/><rect x="161" y="251" width="3" height="1" fill="#8D3035" opacity="0.60"/><rect x="109" y="229" width="4" height="1" fill="#8D3035" opacity="0.33"/><rect x="202" y="254" width="4" height="1" fill="#C29A5B" opacity="0.38"/><rect x="204" y="255" width="3" height="1" fill="#C29A5B" opacity="0.67"/><rect x="220" y="244" width="4" height="1" fill="#8D3035" opacity="0.26"/><rect x="160" y="233" width="3" height="1" fill="#8D3035" opacity="0.33"/><rect x="14" y="136" width="1" height="1" fill="#8D3035" opacity="0.34"/><rect x="145" y="235" width="3" height="2" fill="#8D3035" opacity="0.65"/><rect x="222" y="241" width="1" height="1" fill="#C29A5B" opacity="0.58"/><rect x="177" y="151" width="4" height="1" fill="#8D3035" opacity="0.48"/><rect x="96" y="242" width="4" height="2" fill="#8D3035" opacity="0.52"/><rect x="215" y="244" width="2" height="2" fill="#C29A5B" opacity="0.31"/><rect x="132" y="251" width="2" height="1" fill="#8D3035" opacity="0.32"/><rect x="16" y="231" width="1" height="2" fill="#8D3035" opacity="0.56"/><rect x="37" y="241" width="2" height="2" fill="#8D3035" opacity="0.48"/><rect x="176" y="140" width="3" height="2" fill="#8D3035" opacity="0.67"/><rect x="123" y="237" width="3" height="1" fill="#8D3035" opacity="0.60"/><rect x="21" y="238" width="3" height="2" fill="#C29A5B" opacity="0.64"/><rect x="230" y="253" width="2" height="1" fill="#8D3035" opacity="0.34"/><rect x="180" y="152" width="4" height="1" fill="#C29A5B" opacity="0.27"/><rect x="236" y="130" width="2" height="2" fill="#8D3035" opacity="0.47"/><rect x="67" y="245" width="4" height="2" fill="#8D3035" opacity="0.61"/><rect x="188" y="140" width="2" height="1" fill="#8D3035" opacity="0.63"/><rect x="207" y="250" width="3" height="1" fill="#8D3035" opacity="0.22"/><rect x="202" y="239" width="2" height="1" fill="#C29A5B" opacity="0.29"/><rect x="160" y="146" width="4" height="1" fill="#8D3035" opacity="0.63"/><rect x="239" y="236" width="2" height="2" fill="#C29A5B" opacity="0.67"/><rect x="131" y="236" width="1" height="1" fill="#C29A5B" opacity="0.49"/><rect x="71" y="242" width="2" height="1" fill="#8D3035" opacity="0.48"/><rect x="93" y="251" width="4" height="1" fill="#8D3035" opacity="0.39"/><rect x="139" y="233" width="3" height="2" fill="#8D3035" opacity="0.40"/><rect x="101" y="242" width="3" height="2" fill="#8D3035" opacity="0.26"/><rect x="71" y="135" width="2" height="2" fill="#8D3035" opacity="0.28"/><rect x="75" y="129" width="1" height="2" fill="#8D3035" opacity="0.51"/><rect x="188" y="140" width="1" height="2" fill="#8D3035" opacity="0.55"/><rect x="9" y="134" width="1" height="2" fill="#C29A5B" opacity="0.61"/><rect x="209" y="134" width="3" height="1" fill="#8D3035" opacity="0.59"/><rect x="219" y="137" width="1" height="2" fill="#C29A5B" opacity="0.25"/><rect x="59" y="142" width="1" height="2" fill="#8D3035" opacity="0.49"/><rect x="161" y="131" width="4" height="2" fill="#8D3035" opacity="0.59"/><rect x="208" y="246" width="3" height="1" fill="#8D3035" opacity="0.50"/><rect x="158" y="155" width="2" height="2" fill="#8D3035" opacity="0.37"/><rect x="244" y="160" width="1" height="3" fill="#8D3035" opacity="0.40"/><rect x="255" y="223" width="2" height="2" fill="#8D3035" opacity="0.37"/><rect x="232" y="216" width="2" height="3" fill="#8D3035" opacity="0.37"/><rect x="233" y="209" width="2" height="1" fill="#8D3035" opacity="0.31"/><rect x="12" y="202" width="1" height="3" fill="#8D3035" opacity="0.43"/><rect x="244" y="133" width="2" height="2" fill="#8D3035" opacity="0.47"/><rect x="231" y="220" width="2" height="3" fill="#8D3035" opacity="0.41"/><rect x="19" y="242" width="1" height="1" fill="#8D3035" opacity="0.42"/><rect x="10" y="216" width="1" height="1" fill="#8D3035" opacity="0.55"/><rect x="228" y="194" width="2" height="1" fill="#8D3035" opacity="0.13"/><rect x="15" y="130" width="3" height="2" fill="#8D3035" opacity="0.54"/><rect x="237" y="171" width="1" height="2" fill="#8D3035" opacity="0.43"/><rect x="242" y="166" width="1" height="3" fill="#8D3035" opacity="0.26"/><rect x="21" y="246" width="2" height="2" fill="#8D3035" opacity="0.34"/><rect x="11" y="164" width="2" height="1" fill="#8D3035" opacity="0.43"/><rect x="230" y="195" width="1" height="2" fill="#8D3035" opacity="0.15"/><rect x="12" y="163" width="2" height="3" fill="#8D3035" opacity="0.32"/><rect x="27" y="204" width="1" height="3" fill="#8D3035" opacity="0.53"/><rect x="11" y="194" width="3" height="2" fill="#8D3035" opacity="0.56"/><rect x="1" y="136" width="3" height="2" fill="#8D3035" opacity="0.45"/><rect x="24" y="182" width="3" height="1" fill="#8D3035" opacity="0.12"/><rect x="233" y="166" width="2" height="3" fill="#8D3035" opacity="0.14"/><rect x="240" y="216" width="3" height="1" fill="#8D3035" opacity="0.48"/><rect x="245" y="135" width="2" height="3" fill="#8D3035" opacity="0.56"/><rect x="24" y="216" width="1" height="1" fill="#8D3035" opacity="0.20"/><rect x="235" y="237" width="2" height="1" fill="#8D3035" opacity="0.15"/><rect x="5" y="232" width="1" height="1" fill="#8D3035" opacity="0.46"/><rect x="16" y="188" width="2" height="1" fill="#8D3035" opacity="0.54"/><rect x="251" y="197" width="3" height="1" fill="#8D3035" opacity="0.54"/><rect x="238" y="212" width="1" height="2" fill="#8D3035" opacity="0.21"/><rect x="248" y="169" width="2" height="1" fill="#8D3035" opacity="0.27"/><rect x="9" y="154" width="2" height="1" fill="#8D3035" opacity="0.46"/><rect x="253" y="228" width="2" height="2" fill="#8D3035" opacity="0.52"/><rect x="254" y="244" width="3" height="1" fill="#8D3035" opacity="0.26"/><rect x="13" y="216" width="1" height="3" fill="#8D3035" opacity="0.43"/><rect x="8" y="138" width="3" height="2" fill="#8D3035" opacity="0.13"/><rect x="255" y="208" width="1" height="1" fill="#8D3035" opacity="0.35"/><rect x="24" y="221" width="1" height="3" fill="#8D3035" opacity="0.35"/><rect x="17" y="187" width="3" height="3" fill="#8D3035" opacity="0.15"/><rect x="234" y="196" width="1" height="3" fill="#8D3035" opacity="0.26"/><rect x="235" y="132" width="2" height="2" fill="#8D3035" opacity="0.19"/><rect x="242" y="137" width="2" height="2" fill="#8D3035" opacity="0.14"/><rect x="236" y="194" width="2" height="2" fill="#8D3035" opacity="0.45"/><rect x="244" y="155" width="3" height="3" fill="#8D3035" opacity="0.39"/><rect x="241" y="190" width="1" height="3" fill="#8D3035" opacity="0.37"/><rect x="255" y="180" width="2" height="1" fill="#8D3035" opacity="0.57"/><rect x="9" y="216" width="3" height="2" fill="#8D3035" opacity="0.32"/><rect x="232" y="173" width="3" height="3" fill="#8D3035" opacity="0.54"/><rect x="11" y="248" width="1" height="2" fill="#8D3035" opacity="0.43"/><rect x="240" y="165" width="3" height="2" fill="#8D3035" opacity="0.19"/><rect x="8" y="216" width="1" height="3" fill="#8D3035" opacity="0.36"/><rect x="12" y="247" width="1" height="3" fill="#8D3035" opacity="0.57"/><rect x="235" y="152" width="2" height="2" fill="#8D3035" opacity="0.38"/><rect x="240" y="215" width="3" height="2" fill="#8D3035" opacity="0.54"/><rect x="239" y="169" width="3" height="3" fill="#8D3035" opacity="0.40"/><rect x="240" y="217" width="3" height="3" fill="#8D3035" opacity="0.51"/><rect x="14" y="190" width="3" height="3" fill="#8D3035" opacity="0.28"/><rect x="232" y="139" width="1" height="3" fill="#8D3035" opacity="0.32"/><rect x="22" y="136" width="3" height="1" fill="#8D3035" opacity="0.43"/><rect x="234" y="252" width="1" height="3" fill="#8D3035" opacity="0.49"/><rect x="233" y="192" width="3" height="3" fill="#8D3035" opacity="0.54"/><rect x="2" y="199" width="1" height="2" fill="#8D3035" opacity="0.33"/><rect x="16" y="241" width="2" height="1" fill="#8D3035" opacity="0.51"/><rect x="245" y="161" width="1" height="2" fill="#8D3035" opacity="0.15"/><rect x="253" y="202" width="3" height="1" fill="#8D3035" opacity="0.32"/><rect x="11" y="187" width="2" height="2" fill="#8D3035" opacity="0.36"/><rect x="231" y="182" width="3" height="3" fill="#8D3035" opacity="0.50"/><rect x="233" y="216" width="2" height="3" fill="#8D3035" opacity="0.45"/><rect x="7" y="170" width="1" height="2" fill="#8D3035" opacity="0.55"/><rect x="244" y="134" width="2" height="1" fill="#8D3035" opacity="0.24"/><rect x="234" y="191" width="1" height="3" fill="#8D3035" opacity="0.38"/><rect x="255" y="164" width="2" height="3" fill="#8D3035" opacity="0.48"/><rect x="230" y="191" width="2" height="2" fill="#8D3035" opacity="0.53"/><rect x="231" y="241" width="3" height="2" fill="#8D3035" opacity="0.31"/><rect x="20" y="239" width="3" height="2" fill="#8D3035" opacity="0.54"/><rect x="239" y="254" width="3" height="2" fill="#8D3035" opacity="0.16"/><rect x="250" y="148" width="1" height="1" fill="#8D3035" opacity="0.19"/><rect x="3" y="134" width="1" height="2" fill="#8D3035" opacity="0.27"/><rect x="14" y="173" width="2" height="2" fill="#8D3035" opacity="0.36"/><rect x="239" y="199" width="2" height="2" fill="#8D3035" opacity="0.31"/><rect x="32" y="160" width="192" height="64" fill="#030407" opacity="0.78"/>
</svg>
