<?xml version="1.0" encoding="UTF-8"?>
<svg xmlns="http://www.w3.org/2000/svg" width="512" height="256" viewBox="0 0 512 256" shape-rendering="crispEdges">
<g data-id="bed_loop1"><rect x="2" y="5" width="44" height="25" fill="#0B0C14" /><rect x="4" y="3" width="40" height="25" fill="#242936" /><rect x="6" y="5" width="36" height="7" fill="#69656A" /><rect x="6" y="13" width="36" height="13" fill="#40525A" /><rect x="7" y="6" width="12" height="5" fill="#C8BFAE" /><rect x="3" y="28" width="3" height="3" fill="#0B0C14" /><rect x="42" y="28" width="3" height="3" fill="#0B0C14" /></g><g data-id="bed_loop2"><rect x="50" y="5" width="44" height="25" fill="#0B0C14" /><rect x="52" y="3" width="40" height="25" fill="#242936" /><rect x="54" y="5" width="36" height="7" fill="#69656A" /><rect x="54" y="13" width="36" height="13" fill="#40525A" /><rect x="55" y="6" width="12" height="5" fill="#C8BFAE" /><rect x="72" y="15" width="11" height="4" fill="#0B0C14" opacity="0.55"/><rect x="51" y="28" width="3" height="3" fill="#0B0C14" /><rect x="90" y="28" width="3" height="3" fill="#0B0C14" /></g><g data-id="bedside_table"><rect x="98" y="3" width="12" height="12" fill="#242936" /><rect x="99" y="4" width="10" height="3" fill="#40525A" /><circle cx="106" cy="9" r="1" fill="#C29A5B" /></g><g data-id="wardrobe_closed"><rect x="114" y="1" width="28" height="30" fill="#0B0C14" /><rect x="116" y="2" width="24" height="28" fill="#242936" /><line x1="128" y1="3" x2="128" y2="29" stroke="#40525A" stroke-width="1" /><circle cx="125" cy="16" r="1" fill="#C29A5B" /><circle cx="131" cy="16" r="1" fill="#C29A5B" /></g><g data-id="wardrobe_open"><rect x="146" y="1" width="28" height="30" fill="#0B0C14" /><rect x="148" y="3" width="10" height="26" fill="#242936" /><polygon points="160,3 172,6 172,28 160,29" fill="#40525A" /><rect x="150" y="6" width="5" height="18" fill="#030407" /></g><g data-id="kitchen_counter"><rect x="176" y="4" width="96" height="28" fill="#0B0C14" /><rect x="178" y="6" width="92" height="24" fill="#242936" /><rect x="178" y="6" width="92" height="4" fill="#69656A" /><rect x="180" y="14" width="15" height="14" fill="#40525A" /><circle cx="191" cy="19" r="1" fill="#C29A5B" /><rect x="198" y="14" width="15" height="14" fill="#40525A" /><circle cx="209" cy="19" r="1" fill="#C29A5B" /><rect x="216" y="14" width="15" height="14" fill="#40525A" /><circle cx="227" cy="19" r="1" fill="#C29A5B" /><rect x="234" y="14" width="15" height="14" fill="#40525A" /><circle cx="245" cy="19" r="1" fill="#C29A5B" /><rect x="252" y="14" width="15" height="14" fill="#40525A" /><circle cx="263" cy="19" r="1" fill="#C29A5B" /><rect x="213" y="7" width="24" height="8" fill="#0B0C14" /><rect x="216" y="8" width="18" height="5" fill="#40525A" /><line x1="225" y1="7" x2="225" y2="3" stroke="#69656A" stroke-width="1" /></g><g data-id="glass_single"><rect x="277" y="4" width="6" height="9" fill="#40525A" /><rect x="278" y="5" width="4" height="2" fill="#C8BFAE" /><rect x="276" y="13" width="8" height="1" fill="#69656A" /></g><g data-id="glass_double"><rect x="290" y="5" width="5" height="8" fill="#40525A" /><rect x="297" y="4" width="5" height="9" fill="#40525A" /><rect x="289" y="13" width="14" height="1" fill="#69656A" /></g><g data-id="kitchen_stain"><polygon points="306,11 310,5 318,3 325,6 332,5 334,11 328,14 314,13" fill="#69656A" opacity="0.55"/></g><g data-id="receipt_world"><polygon points="339,3 350,2 349,14 338,13" fill="#C8BFAE" /><rect x="340" y="5" width="8" height="1" fill="#69656A" /><rect x="340" y="8" width="6" height="1" fill="#8D3035" /></g><g data-id="child_bed_loop1"><rect x="2" y="37" width="44" height="25" fill="#0B0C14" /><rect x="4" y="35" width="40" height="25" fill="#242936" /><rect x="6" y="37" width="36" height="7" fill="#40525A" /><rect x="6" y="45" width="36" height="13" fill="#242936" /><rect x="7" y="38" width="12" height="5" fill="#C8BFAE" /><rect x="3" y="60" width="3" height="3" fill="#0B0C14" /><rect x="42" y="60" width="3" height="3" fill="#0B0C14" /></g><g data-id="child_bed_loop2"><rect x="50" y="37" width="44" height="25" fill="#0B0C14" /><rect x="52" y="35" width="40" height="25" fill="#242936" /><rect x="54" y="37" width="36" height="7" fill="#40525A" /><rect x="54" y="45" width="36" height="13" fill="#242936" /><rect x="55" y="38" width="12" height="5" fill="#C8BFAE" /><rect x="51" y="60" width="3" height="3" fill="#0B0C14" /><rect x="90" y="60" width="3" height="3" fill="#0B0C14" /><rect x="60" y="48" width="24" height="1" fill="#C8BFAE" /></g><g data-id="height_marks"><rect x="102" y="34" width="2" height="28" fill="#69656A" /><line x1="104" y1="39" x2="108" y2="39" stroke="#C8BFAE" stroke-width="1" /><line x1="104" y1="44" x2="110" y2="44" stroke="#C8BFAE" stroke-width="1" /><line x1="104" y1="49" x2="108" y2="49" stroke="#C8BFAE" stroke-width="1" /><line x1="104" y1="54" x2="110" y2="54" stroke="#C8BFAE" stroke-width="1" /><line x1="104" y1="59" x2="108" y2="59" stroke="#C8BFAE" stroke-width="1" /></g><g data-id="music_box"><rect x="115" y="39" width="10" height="7" fill="#40525A" /><rect x="116" y="37" width="8" height="2" fill="#242936" /><circle cx="120" cy="42" r="2" fill="#C29A5B" /></g><g data-id="drawing_hidden"><rect x="130" y="42" width="12" height="4" fill="#C8BFAE" /><rect x="133" y="41" width="9" height="1" fill="#8D3035" /></g><g data-id="drawing_revealed"><rect x="146" y="34" width="12" height="12" fill="#C8BFAE" /><polygon points="148,42 151,38 154,42" fill="#C29A5B" /><rect x="153" y="38" width="2" height="6" fill="#0B0C14" /></g><g data-id="sofa"><rect x="2" y="70" width="44" height="24" fill="#0B0C14" /><rect x="4" y="68" width="40" height="20" fill="#242936" /><rect x="6" y="70" width="18" height="14" fill="#40525A" /><rect x="25" y="70" width="17" height="14" fill="#40525A" /><rect x="2" y="84" width="4" height="8" fill="#242936" /><rect x="42" y="84" width="4" height="8" fill="#242936" /></g><g data-id="family_table"><rect x="55" y="75" width="34" height="22" fill="#242936" /><rect x="52" y="72" width="40" height="5" fill="#69656A" /><rect x="57" y="96" width="4" height="12" fill="#0B0C14" /><rect x="84" y="96" width="4" height="12" fill="#0B0C14" /><rect x="65" y="66" width="14" height="5" fill="#40525A" /><rect x="50" y="80" width="5" height="14" fill="#40525A" /><rect x="89" y="80" width="5" height="14" fill="#40525A" /></g><g data-id="wedding_photo_loop1"><rect x="98" y="66" width="12" height="12" fill="#69656A" /><rect x="100" y="68" width="8" height="8" fill="#C8BFAE" /><rect x="100" y="68" width="3" height="8" fill="#8D3035" /><rect x="104" y="69" width="3" height="7" fill="#0B0C14" /></g><g data-id="wedding_photo_loop2"><rect x="114" y="66" width="12" height="12" fill="#69656A" /><rect x="116" y="68" width="8" height="8" fill="#C8BFAE" /><rect x="116" y="69" width="3" height="7" fill="#40525A" /><rect x="121" y="69" width="2" height="7" fill="#242936" /></g><g data-id="living_clock"><circle cx="136" cy="80" r="12" fill="#0B0C14" /><circle cx="136" cy="80" r="10" fill="#C8BFAE" /><line x1="136" y1="80" x2="136" y2="73" stroke="#0B0C14" stroke-width="1" /><line x1="136" y1="80" x2="142" y2="83" stroke="#8D3035" stroke-width="1" /><circle cx="136" cy="80" r="1" fill="#0B0C14" /></g><g data-id="compartment_closed"><rect x="146" y="66" width="28" height="28" fill="#242936" /><rect x="149" y="69" width="22" height="22" fill="#0B0C14" /><rect x="151" y="71" width="18" height="18" fill="#242936" /></g><g data-id="compartment_open"><rect x="178" y="66" width="28" height="28" fill="#242936" /><rect x="181" y="69" width="22" height="22" fill="#030407" /><polygon points="180,68 204,65 206,72 182,76" fill="#40525A" /></g><g data-id="memory_tape"><rect x="210" y="68" width="12" height="8" fill="#69656A" /><circle cx="213" cy="72" r="2" fill="#0B0C14" /><circle cx="219" cy="72" r="2" fill="#0B0C14" /><rect x="214" y="74" width="4" height="1" fill="#C8BFAE" /></g><g data-id="hall_light_on"><line x1="232" y1="65" x2="232" y2="69" stroke="#69656A" stroke-width="1" /><polygon points="227,69 237,69 239,75 225,75" fill="#C29A5B" /><rect x="229" y="75" width="6" height="2" fill="#C8BFAE" /></g><g data-id="hall_light_off"><line x1="248" y1="65" x2="248" y2="69" stroke="#69656A" stroke-width="1" /><polygon points="243,69 253,69 255,75 241,75" fill="#242936" /></g><g data-id="exit_door"><rect x="258" y="66" width="28" height="46" fill="#0B0C14" /><rect x="261" y="68" width="22" height="42" fill="#242936" /><rect x="264" y="72" width="16" height="12" fill="#40525A" /><rect x="264" y="87" width="16" height="18" fill="#40525A" /><circle cx="278" cy="90" r="1" fill="#8D3035" /></g><g data-id="sock"><polygon points="2,132 8,132 8,138 12,138 12,142 4,142 4,137 2,137" fill="#40525A" /></g><g data-id="medicine_box"><rect x="18" y="130" width="12" height="12" fill="#C8BFAE" /><rect x="22" y="132" width="4" height="8" fill="#8D3035" /><rect x="20" y="135" width="8" height="2" fill="#8D3035" /></g><g data-id="envelope"><rect x="34" y="132" width="14" height="9" fill="#C8BFAE" /><polygon points="34,132 41,137 48,132" fill="#69656A" /></g><g data-id="phone"><rect x="52" y="130" width="12" height="14" fill="#242936" /><rect x="54" y="132" width="8" height="8" fill="#0B0C14" /><circle cx="58" cy="142" r="1" fill="#C29A5B" /></g><g data-id="calendar"><rect x="68" y="129" width="14" height="15" fill="#C8BFAE" /><rect x="68" y="129" width="14" height="4" fill="#8D3035" /><line x1="71" y1="136" x2="79" y2="141" stroke="#69656A" stroke-width="1" /></g><g data-id="letter"><rect x="86" y="130" width="12" height="14" fill="#C8BFAE" /><rect x="88" y="133" width="8" height="1" fill="#69656A" /><rect x="88" y="136" width="6" height="1" fill="#69656A" /></g><g data-id="shirt_patch"><rect x="102" y="130" width="12" height="14" fill="#40525A" /><rect x="105" y="135" width="5" height="5" fill="#69656A" /></g><g data-id="shopping_list"><rect x="118" y="129" width="12" height="15" fill="#C8BFAE" /><rect x="120" y="132" width="7" height="1" fill="#69656A" /><rect x="120" y="136" width="8" height="1" fill="#69656A" /><rect x="120" y="140" width="5" height="1" fill="#8D3035" /></g><g data-id="school_form"><rect x="134" y="129" width="13" height="15" fill="#C8BFAE" /><rect x="136" y="132" width="9" height="2" fill="#40525A" /><rect x="136" y="136" width="7" height="1" fill="#69656A" /></g><g data-id="door_chain"><line x1="152" y1="132" x2="161" y2="141" stroke="#69656A" stroke-width="2" /><circle cx="153" cy="132" r="2" fill="#242936" /><circle cx="162" cy="142" r="2" fill="#242936" /></g><g data-id="plates_three"><circle cx="174" cy="137" r="4" fill="#C8BFAE" /><circle cx="183" cy="137" r="4" fill="#C8BFAE" /><circle cx="192" cy="137" r="4" fill="#C8BFAE" /></g><g data-id="album_empty"><rect x="202" y="129" width="14" height="15" fill="#242936" /><rect x="204" y="131" width="10" height="11" fill="#C8BFAE" /><rect x="208" y="133" width="2" height="7" fill="#69656A" /></g>
</svg>
