<?xml version="1.0" encoding="UTF-8"?>
<svg xmlns="http://www.w3.org/2000/svg" width="512" height="256" viewBox="0 0 512 256" shape-rendering="crispEdges">
<g data-id="bed_loop1"><rect x="2" y="5" width="44" height="25" fill="#030407" /><rect x="3" y="3" width="42" height="25" fill="#0B0C14" /><rect x="4" y="3" width="40" height="4" fill="#69656A" /><rect x="5" y="7" width="38" height="20" fill="#242936" /><rect x="6" y="8" width="36" height="6" fill="#69656A" /><rect x="7" y="9" width="12" height="4" fill="#C8BFAE" /><rect x="20" y="9" width="1" height="4" fill="#52666C" /><rect x="6" y="15" width="36" height="11" fill="#2F4652" /><rect x="7" y="16" width="34" height="2" fill="#52666C" /><line x1="9" y1="20" x2="38" y2="20" stroke="#69656A" stroke-width="1" /><rect x="3" y="28" width="4" height="3" fill="#0B0C14" /><rect x="41" y="28" width="4" height="3" fill="#0B0C14" /></g><g data-id="bed_loop2"><rect x="50" y="5" width="44" height="25" fill="#030407" /><rect x="51" y="3" width="42" height="25" fill="#0B0C14" /><rect x="52" y="3" width="40" height="4" fill="#69656A" /><rect x="53" y="7" width="38" height="20" fill="#242936" /><rect x="54" y="8" width="36" height="6" fill="#69656A" /><rect x="55" y="9" width="12" height="4" fill="#C8BFAE" /><rect x="68" y="9" width="1" height="4" fill="#52666C" /><rect x="54" y="15" width="36" height="11" fill="#2F4652" /><rect x="55" y="16" width="34" height="2" fill="#52666C" /><line x1="57" y1="20" x2="86" y2="20" stroke="#69656A" stroke-width="1" /><rect x="51" y="28" width="4" height="3" fill="#0B0C14" /><rect x="89" y="28" width="4" height="3" fill="#0B0C14" /><polygon points="71,17 77,15 84,18 82,23 73,23" fill="#0B0C14" opacity="0.7"/></g><g data-id="bedside_table"><rect x="98" y="3" width="12" height="12" fill="#0B0C14" /><rect x="99" y="2" width="10" height="3" fill="#69656A" /><rect x="100" y="6" width="8" height="3" fill="#242936" /><rect x="100" y="10" width="8" height="4" fill="#242936" /><circle cx="106" cy="7" r="1" fill="#C29A5B" /><rect x="99" y="15" width="2" height="1" fill="#030407" /><rect x="107" y="15" width="2" height="1" fill="#030407" /></g><g data-id="wardrobe_closed"><rect x="114" y="2" width="28" height="30" fill="#030407" /><rect x="116" y="1" width="24" height="29" fill="#0B0C14" /><rect x="118" y="3" width="20" height="26" fill="#242936" /><rect x="119" y="4" width="8" height="23" fill="#40525A" /><rect x="129" y="4" width="8" height="23" fill="#40525A" /><rect x="120" y="5" width="6" height="2" fill="#69656A" /><rect x="130" y="5" width="6" height="2" fill="#69656A" /><circle cx="125" cy="16" r="1" fill="#C29A5B" /><circle cx="131" cy="16" r="1" fill="#C29A5B" /></g><g data-id="wardrobe_open"><rect x="146" y="2" width="28" height="30" fill="#030407" /><rect x="148" y="1" width="24" height="29" fill="#0B0C14" /><rect x="150" y="4" width="9" height="24" fill="#030407" /><rect x="151" y="6" width="7" height="1" fill="#69656A" /><line x1="154" y1="7" x2="154" y2="23" stroke="#40525A" stroke-width="1" /><polygon points="161,3 172,6 172,28 161,29" fill="#40525A" /><polygon points="163,5 170,7 170,26 163,27" fill="#242936" /><circle cx="164" cy="16" r="1" fill="#C29A5B" /></g><g data-id="kitchen_counter"><rect x="176" y="5" width="96" height="27" fill="#030407" /><rect x="178" y="4" width="92" height="26" fill="#0B0C14" /><rect x="178" y="4" width="92" height="5" fill="#69656A" /><rect x="179" y="5" width="90" height="2" fill="#C8BFAE" opacity="0.4"/><rect x="180" y="12" width="15" height="16" fill="#242936" /><rect x="181" y="13" width="13" height="2" fill="#40525A" /><rect x="182" y="17" width="11" height="9" fill="#40525A" /><circle cx="191" cy="20" r="1" fill="#C29A5B" /><rect x="198" y="12" width="15" height="16" fill="#242936" /><rect x="199" y="13" width="13" height="2" fill="#40525A" /><rect x="200" y="17" width="11" height="9" fill="#40525A" /><circle cx="209" cy="20" r="1" fill="#C29A5B" /><rect x="216" y="12" width="15" height="16" fill="#242936" /><rect x="217" y="13" width="13" height="2" fill="#40525A" /><rect x="218" y="17" width="11" height="9" fill="#40525A" /><circle cx="227" cy="20" r="1" fill="#C29A5B" /><rect x="234" y="12" width="15" height="16" fill="#242936" /><rect x="235" y="13" width="13" height="2" fill="#40525A" /><rect x="236" y="17" width="11" height="9" fill="#40525A" /><circle cx="245" cy="20" r="1" fill="#C29A5B" /><rect x="252" y="12" width="15" height="16" fill="#242936" /><rect x="253" y="13" width="13" height="2" fill="#40525A" /><rect x="254" y="17" width="11" height="9" fill="#40525A" /><circle cx="263" cy="20" r="1" fill="#C29A5B" /><rect x="212" y="5" width="26" height="10" fill="#0B0C14" /><rect x="215" y="7" width="20" height="6" fill="#40525A" /><rect x="217" y="8" width="16" height="3" fill="#030407" /><line x1="225" y1="6" x2="225" y2="2" stroke="#69656A" stroke-width="1" /><line x1="225" y1="2" x2="229" y2="2" stroke="#69656A" stroke-width="1" /><line x1="229" y1="2" x2="229" y2="6" stroke="#69656A" stroke-width="1" /><rect x="247" y="5" width="18" height="3" fill="#242936" /><circle cx="251" cy="6" r="1" fill="#C29A5B" /><circle cx="260" cy="6" r="1" fill="#C29A5B" /></g><g data-id="glass_single"><rect x="277" y="4" width="6" height="9" fill="#0B0C14" /><rect x="278" y="5" width="4" height="7" fill="#40525A" /><rect x="279" y="6" width="2" height="1" fill="#C8BFAE" /><rect x="276" y="13" width="8" height="1" fill="#69656A" /></g><g data-id="glass_double"><rect x="290" y="5" width="5" height="8" fill="#0B0C14" /><rect x="291" y="6" width="3" height="6" fill="#40525A" /><rect x="297" y="4" width="5" height="9" fill="#0B0C14" /><rect x="298" y="5" width="3" height="7" fill="#40525A" /><rect x="289" y="13" width="14" height="1" fill="#69656A" /><rect x="299" y="5" width="1" height="1" fill="#C8BFAE" /></g><g data-id="kitchen_stain"><polygon points="306,11 309,7 314,6 318,3 322,6 327,5 333,9 334,12 329,14 321,13 316,15 310,13" fill="#69656A" opacity="0.5"/><rect x="318" y="8" width="3" height="2" fill="#242936" /></g><g data-id="receipt_world"><polygon points="339,3 350,2 349,14 338,13" fill="#C8BFAE" /><rect x="340" y="5" width="8" height="1" fill="#69656A" /><rect x="340" y="8" width="6" height="1" fill="#8D3035" /><rect x="339" y="12" width="2" height="1" fill="#0B0C14" /><rect x="347" y="11" width="2" height="2" fill="#0B0C14" /></g><g data-id="child_bed_loop1"><rect x="2" y="37" width="44" height="25" fill="#030407" /><rect x="3" y="35" width="42" height="25" fill="#0B0C14" /><rect x="4" y="35" width="40" height="4" fill="#69656A" /><rect x="5" y="39" width="38" height="20" fill="#242936" /><rect x="6" y="40" width="36" height="6" fill="#9B9182" /><rect x="7" y="41" width="12" height="4" fill="#DFC487" /><rect x="20" y="41" width="1" height="4" fill="#52666C" /><rect x="6" y="47" width="36" height="11" fill="#52666C" /><rect x="7" y="48" width="34" height="2" fill="#2F4652" /><line x1="9" y1="52" x2="38" y2="52" stroke="#DFC487" stroke-width="1" /><rect x="3" y="60" width="4" height="3" fill="#0B0C14" /><rect x="41" y="60" width="4" height="3" fill="#0B0C14" /><rect x="31" y="54" width="3" height="2" fill="#C29A5B" /><rect x="34" y="55" width="2" height="1" fill="#C8BFAE" /></g><g data-id="child_bed_loop2"><rect x="50" y="37" width="44" height="25" fill="#030407" /><rect x="51" y="35" width="42" height="25" fill="#0B0C14" /><rect x="52" y="35" width="40" height="4" fill="#69656A" /><rect x="53" y="39" width="38" height="20" fill="#242936" /><rect x="54" y="40" width="36" height="6" fill="#9B9182" /><rect x="55" y="41" width="12" height="4" fill="#DFC487" /><rect x="68" y="41" width="1" height="4" fill="#52666C" /><rect x="54" y="47" width="36" height="11" fill="#52666C" /><rect x="55" y="48" width="34" height="2" fill="#2F4652" /><line x1="57" y1="52" x2="86" y2="52" stroke="#DFC487" stroke-width="1" /><rect x="51" y="60" width="4" height="3" fill="#0B0C14" /><rect x="89" y="60" width="4" height="3" fill="#0B0C14" /><rect x="79" y="54" width="3" height="2" fill="#C29A5B" /><rect x="82" y="55" width="2" height="1" fill="#C8BFAE" /><rect x="55" y="50" width="34" height="1" fill="#C8BFAE" /></g><g data-id="height_marks"><rect x="102" y="34" width="2" height="28" fill="#69656A" /><line x1="104" y1="39" x2="108" y2="39" stroke="#C8BFAE" stroke-width="1" /><line x1="104" y1="44" x2="110" y2="44" stroke="#C8BFAE" stroke-width="1" /><line x1="104" y1="49" x2="108" y2="49" stroke="#C8BFAE" stroke-width="1" /><line x1="104" y1="54" x2="110" y2="54" stroke="#C8BFAE" stroke-width="1" /><line x1="104" y1="59" x2="108" y2="59" stroke="#C8BFAE" stroke-width="1" /><rect x="106" y="51" width="3" height="1" fill="#C29A5B" /></g><g data-id="music_box"><rect x="114" y="39" width="12" height="8" fill="#0B0C14" /><rect x="115" y="40" width="10" height="6" fill="#40525A" /><rect x="116" y="37" width="8" height="3" fill="#242936" /><rect x="117" y="38" width="6" height="1" fill="#69656A" /><circle cx="120" cy="43" r="2" fill="#C29A5B" /><circle cx="120" cy="43" r="1" fill="#8D3035" /></g><g data-id="drawing_hidden"><rect x="130" y="42" width="12" height="4" fill="#C8BFAE" /><rect x="133" y="41" width="9" height="1" fill="#8D3035" /></g><g data-id="drawing_revealed"><rect x="146" y="34" width="12" height="12" fill="#C8BFAE" /><polygon points="148,42 151,38 154,42" fill="#C29A5B" /><rect x="153" y="38" width="2" height="6" fill="#0B0C14" /></g><g data-id="sofa"><rect x="2" y="71" width="44" height="23" fill="#030407" /><rect x="4" y="67" width="40" height="22" fill="#0B0C14" /><rect x="6" y="69" width="36" height="17" fill="#151923" /><rect x="7" y="70" width="16" height="13" fill="#2F4652" /><rect x="25" y="70" width="16" height="13" fill="#2F4652" /><rect x="8" y="71" width="14" height="2" fill="#52666C" /><rect x="26" y="71" width="14" height="2" fill="#52666C" /><rect x="3" y="74" width="5" height="15" fill="#242936" /><rect x="40" y="74" width="5" height="15" fill="#242936" /><rect x="4" y="89" width="4" height="4" fill="#0B0C14" /><rect x="40" y="89" width="4" height="4" fill="#0B0C14" /><rect x="23" y="72" width="2" height="11" fill="#0B0C14" /><rect x="10" y="81" width="9" height="1" fill="#242936" /><rect x="29" y="80" width="8" height="1" fill="#242936" /></g><g data-id="family_table"><rect x="55" y="76" width="34" height="22" fill="#030407" /><rect x="53" y="72" width="38" height="24" fill="#0B0C14" /><rect x="55" y="73" width="34" height="20" fill="#242936" /><rect x="56" y="74" width="32" height="2" fill="#69656A" /><rect x="58" y="77" width="10" height="1" fill="#40525A" /><rect x="76" y="88" width="9" height="1" fill="#40525A" /><rect x="57" y="94" width="4" height="14" fill="#0B0C14" /><rect x="84" y="94" width="4" height="14" fill="#0B0C14" /><rect x="65" y="65" width="14" height="6" fill="#0B0C14" /><rect x="67" y="66" width="10" height="4" fill="#40525A" /><rect x="49" y="80" width="6" height="14" fill="#0B0C14" /><rect x="50" y="82" width="4" height="10" fill="#40525A" /><rect x="90" y="80" width="6" height="14" fill="#0B0C14" /><rect x="91" y="82" width="4" height="10" fill="#40525A" /><circle cx="63" cy="82" r="4" fill="#C8BFAE" /><circle cx="73" cy="84" r="4" fill="#C8BFAE" /><circle cx="83" cy="81" r="4" fill="#C8BFAE" /><circle cx="63" cy="82" r="2" fill="#242936" /><circle cx="73" cy="84" r="2" fill="#242936" /><circle cx="83" cy="81" r="2" fill="#242936" /></g><g data-id="wedding_photo_loop1"><rect x="97" y="65" width="14" height="14" fill="#0B0C14" /><rect x="98" y="66" width="12" height="12" fill="#69656A" /><rect x="100" y="68" width="8" height="8" fill="#C8BFAE" /><rect x="100" y="69" width="3" height="7" fill="#C29A5B" /><rect x="104" y="68" width="4" height="8" fill="#0B0C14" /><rect x="105" y="68" width="3" height="2" fill="#030407" /></g><g data-id="wedding_photo_loop2"><rect x="113" y="65" width="14" height="14" fill="#0B0C14" /><rect x="114" y="66" width="12" height="12" fill="#69656A" /><rect x="116" y="68" width="8" height="8" fill="#C8BFAE" /><rect x="116" y="69" width="3" height="7" fill="#C29A5B" /><rect x="120" y="68" width="4" height="8" fill="#242936" /><rect x="121" y="68" width="2" height="2" fill="#0B0C14" /></g><g data-id="living_clock"><circle cx="136" cy="80" r="13" fill="#030407" /><circle cx="136" cy="80" r="11" fill="#69656A" /><circle cx="136" cy="80" r="9" fill="#C8BFAE" /><rect x="135" y="71" width="2" height="2" fill="#0B0C14" /><rect x="135" y="87" width="2" height="2" fill="#0B0C14" /><rect x="127" y="79" width="2" height="2" fill="#0B0C14" /><rect x="143" y="79" width="2" height="2" fill="#0B0C14" /><line x1="136" y1="80" x2="136" y2="73" stroke="#0B0C14" stroke-width="1" /><line x1="136" y1="80" x2="142" y2="83" stroke="#8D3035" stroke-width="1" /><circle cx="136" cy="80" r="1" fill="#0B0C14" /></g><g data-id="compartment_closed"><rect x="146" y="66" width="28" height="28" fill="#0B0C14" /><rect x="148" y="68" width="24" height="24" fill="#242936" /><rect x="150" y="70" width="20" height="20" fill="#40525A" /><rect x="151" y="71" width="18" height="18" fill="#242936" /><rect x="159" y="80" width="2" height="2" fill="#69656A" /></g><g data-id="compartment_open"><rect x="178" y="66" width="28" height="28" fill="#0B0C14" /><rect x="180" y="68" width="24" height="24" fill="#242936" /><rect x="182" y="70" width="20" height="20" fill="#030407" /><polygon points="180,68 204,65 206,72 182,76" fill="#40525A" /><rect x="184" y="74" width="16" height="2" fill="#69656A" /></g><g data-id="memory_tape"><rect x="210" y="68" width="12" height="8" fill="#69656A" /><circle cx="213" cy="72" r="2" fill="#0B0C14" /><circle cx="219" cy="72" r="2" fill="#0B0C14" /><rect x="214" y="74" width="4" height="1" fill="#C8BFAE" /></g><g data-id="hall_light_on"><line x1="232" y1="65" x2="232" y2="69" stroke="#69656A" stroke-width="1" /><polygon points="227,69 237,69 239,75 225,75" fill="#C29A5B" /><rect x="229" y="75" width="6" height="2" fill="#C8BFAE" /></g><g data-id="hall_light_off"><line x1="248" y1="65" x2="248" y2="69" stroke="#69656A" stroke-width="1" /><polygon points="243,69 253,69 255,75 241,75" fill="#242936" /></g><g data-id="exit_door"><rect x="258" y="66" width="28" height="46" fill="#030407" /><rect x="260" y="67" width="24" height="44" fill="#0B0C14" /><rect x="262" y="69" width="20" height="40" fill="#242936" /><rect x="264" y="72" width="16" height="12" fill="#40525A" /><rect x="265" y="73" width="14" height="2" fill="#69656A" /><rect x="264" y="87" width="16" height="18" fill="#40525A" /><rect x="265" y="88" width="14" height="2" fill="#69656A" /><circle cx="278" cy="94" r="1" fill="#8D3035" /><rect x="260" y="109" width="24" height="3" fill="#40525A" /></g><g data-id="bedroom_rug"><rect x="290" y="66" width="60" height="28" fill="#0B0C14" /><rect x="292" y="68" width="56" height="24" fill="#69656A" /><rect x="294" y="70" width="52" height="20" fill="#2F4652" /><rect x="297" y="73" width="46" height="14" fill="#242936" /><rect x="300" y="76" width="40" height="1" fill="#52666C" /><rect x="300" y="84" width="40" height="1" fill="#52666C" /><polygon points="310,80 316,75 322,80 316,85" fill="#69656A" /><polygon points="326,80 332,75 338,80 332,85" fill="#69656A" /></g><g data-id="bedroom_lamp"><rect x="355" y="76" width="10" height="3" fill="#0B0C14" /><rect x="358" y="70" width="4" height="7" fill="#69656A" /><polygon points="353,68 367,68 364,61 356,61" fill="#C29A5B" /><rect x="357" y="62" width="6" height="2" fill="#DFC487" /></g><g data-id="bedroom_window"><rect x="370" y="66" width="44" height="28" fill="#0B0C14" /><rect x="372" y="68" width="40" height="24" fill="#69656A" /><rect x="375" y="71" width="34" height="18" fill="#030407" /><rect x="391" y="71" width="2" height="18" fill="#303746" /><rect x="375" y="79" width="34" height="2" fill="#303746" /><rect x="374" y="69" width="3" height="22" fill="#2F4652" /><rect x="407" y="69" width="3" height="22" fill="#2F4652" /><rect x="376" y="72" width="5" height="1" fill="#40525A" /></g><g data-id="sock"><polygon points="2,132 8,132 8,138 12,138 12,142 4,142 4,137 2,137" fill="#40525A" /></g><g data-id="medicine_box"><rect x="18" y="130" width="12" height="12" fill="#C8BFAE" /><rect x="22" y="132" width="4" height="8" fill="#8D3035" /><rect x="20" y="135" width="8" height="2" fill="#8D3035" /></g><g data-id="envelope"><rect x="34" y="132" width="14" height="9" fill="#C8BFAE" /><polygon points="34,132 41,137 48,132" fill="#69656A" /></g><g data-id="phone"><rect x="52" y="130" width="12" height="14" fill="#242936" /><rect x="54" y="132" width="8" height="8" fill="#0B0C14" /><circle cx="58" cy="142" r="1" fill="#C29A5B" /></g><g data-id="calendar"><rect x="68" y="129" width="14" height="15" fill="#C8BFAE" /><rect x="68" y="129" width="14" height="4" fill="#8D3035" /><line x1="71" y1="136" x2="79" y2="141" stroke="#69656A" stroke-width="1" /></g><g data-id="letter"><rect x="86" y="130" width="12" height="14" fill="#C8BFAE" /><rect x="88" y="133" width="8" height="1" fill="#69656A" /><rect x="88" y="136" width="6" height="1" fill="#69656A" /></g><g data-id="shirt_patch"><rect x="102" y="130" width="12" height="14" fill="#40525A" /><rect x="105" y="135" width="5" height="5" fill="#69656A" /></g><g data-id="shopping_list"><rect x="118" y="129" width="12" height="15" fill="#C8BFAE" /><rect x="120" y="132" width="7" height="1" fill="#69656A" /><rect x="120" y="136" width="8" height="1" fill="#69656A" /><rect x="120" y="140" width="5" height="1" fill="#8D3035" /></g><g data-id="school_form"><rect x="134" y="129" width="13" height="15" fill="#C8BFAE" /><rect x="136" y="132" width="9" height="2" fill="#40525A" /><rect x="136" y="136" width="7" height="1" fill="#69656A" /></g><g data-id="door_chain"><line x1="152" y1="132" x2="161" y2="141" stroke="#69656A" stroke-width="2" /><circle cx="153" cy="132" r="2" fill="#242936" /><circle cx="162" cy="142" r="2" fill="#242936" /></g><g data-id="plates_three"><circle cx="174" cy="137" r="4" fill="#C8BFAE" /><circle cx="183" cy="137" r="4" fill="#C8BFAE" /><circle cx="192" cy="137" r="4" fill="#C8BFAE" /></g><g data-id="album_empty"><rect x="202" y="129" width="14" height="15" fill="#242936" /><rect x="204" y="131" width="10" height="11" fill="#C8BFAE" /><rect x="208" y="133" width="2" height="7" fill="#69656A" /></g>
</svg>
