<?xml version="1.0" encoding="UTF-8"?>
<svg xmlns="http://www.w3.org/2000/svg" width="128" height="192" viewBox="0 0 128 192" shape-rendering="crispEdges">
<rect x="12" y="7" width="1" height="1" fill="#69656A" /><rect x="11" y="21" width="1" height="5" fill="#69656A" opacity="0.65"/><rect x="19" y="22" width="1" height="4" fill="#40525A" opacity="0.65"/><rect x="9" y="45" width="5" height="1" fill="#40525A" opacity="0.5"/><rect x="19" y="45" width="5" height="1" fill="#40525A" opacity="0.5"/><rect x="44" y="7" width="1" height="1" fill="#69656A" /><rect x="43" y="21" width="1" height="5" fill="#69656A" opacity="0.65"/><rect x="51" y="22" width="1" height="4" fill="#40525A" opacity="0.65"/><rect x="42" y="45" width="5" height="1" fill="#40525A" opacity="0.5"/><rect x="50" y="45" width="5" height="1" fill="#40525A" opacity="0.5"/><rect x="76" y="7" width="1" height="1" fill="#69656A" /><rect x="75" y="21" width="1" height="5" fill="#69656A" opacity="0.65"/><rect x="83" y="22" width="1" height="4" fill="#40525A" opacity="0.65"/><rect x="73" y="45" width="5" height="1" fill="#40525A" opacity="0.5"/><rect x="83" y="45" width="5" height="1" fill="#40525A" opacity="0.5"/><rect x="108" y="7" width="1" height="1" fill="#69656A" /><rect x="107" y="21" width="1" height="5" fill="#69656A" opacity="0.65"/><rect x="115" y="22" width="1" height="4" fill="#40525A" opacity="0.65"/><rect x="106" y="45" width="5" height="1" fill="#40525A" opacity="0.5"/><rect x="114" y="45" width="5" height="1" fill="#40525A" opacity="0.5"/><rect x="12" y="55" width="1" height="1" fill="#40525A" /><rect x="11" y="69" width="1" height="5" fill="#69656A" opacity="0.65"/><rect x="19" y="70" width="1" height="4" fill="#40525A" opacity="0.65"/><rect x="9" y="93" width="5" height="1" fill="#40525A" opacity="0.5"/><rect x="19" y="93" width="5" height="1" fill="#40525A" opacity="0.5"/><rect x="44" y="55" width="1" height="1" fill="#40525A" /><rect x="43" y="69" width="1" height="5" fill="#69656A" opacity="0.65"/><rect x="51" y="70" width="1" height="4" fill="#40525A" opacity="0.65"/><rect x="42" y="93" width="5" height="1" fill="#40525A" opacity="0.5"/><rect x="50" y="93" width="5" height="1" fill="#40525A" opacity="0.5"/><rect x="76" y="55" width="1" height="1" fill="#40525A" /><rect x="75" y="69" width="1" height="5" fill="#69656A" opacity="0.65"/><rect x="83" y="70" width="1" height="4" fill="#40525A" opacity="0.65"/><rect x="73" y="93" width="5" height="1" fill="#40525A" opacity="0.5"/><rect x="83" y="93" width="5" height="1" fill="#40525A" opacity="0.5"/><rect x="108" y="55" width="1" height="1" fill="#40525A" /><rect x="107" y="69" width="1" height="5" fill="#69656A" opacity="0.65"/><rect x="115" y="70" width="1" height="4" fill="#40525A" opacity="0.65"/><rect x="106" y="93" width="5" height="1" fill="#40525A" opacity="0.5"/><rect x="114" y="93" width="5" height="1" fill="#40525A" opacity="0.5"/><rect x="12" y="103" width="1" height="1" fill="#69656A" /><rect x="11" y="117" width="1" height="5" fill="#69656A" opacity="0.65"/><rect x="19" y="118" width="1" height="4" fill="#40525A" opacity="0.65"/><rect x="9" y="141" width="5" height="1" fill="#40525A" opacity="0.5"/><rect x="19" y="141" width="5" height="1" fill="#40525A" opacity="0.5"/><rect x="44" y="103" width="1" height="1" fill="#69656A" /><rect x="43" y="117" width="1" height="5" fill="#69656A" opacity="0.65"/><rect x="51" y="118" width="1" height="4" fill="#40525A" opacity="0.65"/><rect x="42" y="141" width="5" height="1" fill="#40525A" opacity="0.5"/><rect x="50" y="141" width="5" height="1" fill="#40525A" opacity="0.5"/><rect x="76" y="103" width="1" height="1" fill="#69656A" /><rect x="75" y="117" width="1" height="5" fill="#69656A" opacity="0.65"/><rect x="83" y="118" width="1" height="4" fill="#40525A" opacity="0.65"/><rect x="73" y="141" width="5" height="1" fill="#40525A" opacity="0.5"/><rect x="83" y="141" width="5" height="1" fill="#40525A" opacity="0.5"/><rect x="108" y="103" width="1" height="1" fill="#69656A" /><rect x="107" y="117" width="1" height="5" fill="#69656A" opacity="0.65"/><rect x="115" y="118" width="1" height="4" fill="#40525A" opacity="0.65"/><rect x="106" y="141" width="5" height="1" fill="#40525A" opacity="0.5"/><rect x="114" y="141" width="5" height="1" fill="#40525A" opacity="0.5"/><rect x="12" y="151" width="1" height="1" fill="#69656A" /><rect x="11" y="165" width="1" height="5" fill="#69656A" opacity="0.65"/><rect x="19" y="166" width="1" height="4" fill="#40525A" opacity="0.65"/><rect x="9" y="189" width="5" height="1" fill="#40525A" opacity="0.5"/><rect x="19" y="189" width="5" height="1" fill="#40525A" opacity="0.5"/><rect x="44" y="151" width="1" height="1" fill="#69656A" /><rect x="43" y="165" width="1" height="5" fill="#69656A" opacity="0.65"/><rect x="51" y="166" width="1" height="4" fill="#40525A" opacity="0.65"/><rect x="42" y="189" width="5" height="1" fill="#40525A" opacity="0.5"/><rect x="50" y="189" width="5" height="1" fill="#40525A" opacity="0.5"/><rect x="76" y="151" width="1" height="1" fill="#69656A" /><rect x="75" y="165" width="1" height="5" fill="#69656A" opacity="0.65"/><rect x="83" y="166" width="1" height="4" fill="#40525A" opacity="0.65"/><rect x="73" y="189" width="5" height="1" fill="#40525A" opacity="0.5"/><rect x="83" y="189" width="5" height="1" fill="#40525A" opacity="0.5"/><rect x="108" y="151" width="1" height="1" fill="#69656A" /><rect x="107" y="165" width="1" height="5" fill="#69656A" opacity="0.65"/><rect x="115" y="166" width="1" height="4" fill="#40525A" opacity="0.65"/><rect x="106" y="189" width="5" height="1" fill="#40525A" opacity="0.5"/><rect x="114" y="189" width="5" height="1" fill="#40525A" opacity="0.5"/>
</svg>
