<?xml version="1.0" encoding="UTF-8"?>
<svg xmlns="http://www.w3.org/2000/svg" width="64" height="96" viewBox="0 0 64 96" shape-rendering="crispEdges">
<rect x="5" y="2" width="6" height="5" fill="#0B0C14" /><rect x="6" y="3" width="4" height="4" fill="#C8BFAE" /><rect x="4" y="7" width="8" height="10" fill="#242936" /><rect x="5" y="8" width="2" height="6" fill="#C29A5B" /><rect x="6" y="3" width="4" height="1" fill="#0B0C14" /><rect x="3" y="8" width="2" height="8" fill="#40525A" /><rect x="11" y="8" width="2" height="8" fill="#40525A" /><rect x="5" y="17" width="3" height="6" fill="#0B0C14" /><rect x="8" y="17" width="3" height="6" fill="#0B0C14" /><rect x="21" y="2" width="6" height="5" fill="#0B0C14" /><rect x="22" y="3" width="4" height="4" fill="#C8BFAE" /><rect x="20" y="7" width="8" height="10" fill="#242936" /><rect x="21" y="8" width="2" height="6" fill="#C29A5B" /><rect x="22" y="3" width="4" height="1" fill="#0B0C14" /><rect x="19" y="9" width="2" height="8" fill="#40525A" /><rect x="27" y="8" width="2" height="8" fill="#40525A" /><rect x="21" y="17" width="3" height="6" fill="#0B0C14" /><rect x="23" y="17" width="3" height="6" fill="#0B0C14" /><rect x="37" y="2" width="6" height="5" fill="#0B0C14" /><rect x="38" y="3" width="4" height="4" fill="#C8BFAE" /><rect x="36" y="7" width="8" height="10" fill="#242936" /><rect x="37" y="8" width="2" height="6" fill="#C29A5B" /><rect x="38" y="3" width="4" height="1" fill="#0B0C14" /><rect x="35" y="8" width="2" height="8" fill="#40525A" /><rect x="43" y="8" width="2" height="8" fill="#40525A" /><rect x="37" y="17" width="3" height="6" fill="#0B0C14" /><rect x="40" y="17" width="3" height="6" fill="#0B0C14" /><rect x="53" y="2" width="6" height="5" fill="#0B0C14" /><rect x="54" y="3" width="4" height="4" fill="#C8BFAE" /><rect x="52" y="7" width="8" height="10" fill="#242936" /><rect x="53" y="8" width="2" height="6" fill="#C29A5B" /><rect x="54" y="3" width="4" height="1" fill="#0B0C14" /><rect x="51" y="8" width="2" height="8" fill="#40525A" /><rect x="59" y="9" width="2" height="8" fill="#40525A" /><rect x="54" y="17" width="3" height="6" fill="#0B0C14" /><rect x="56" y="17" width="3" height="6" fill="#0B0C14" /><rect x="5" y="26" width="6" height="5" fill="#0B0C14" /><rect x="6" y="27" width="4" height="4" fill="#C8BFAE" /><rect x="4" y="31" width="8" height="10" fill="#242936" /><rect x="5" y="32" width="2" height="6" fill="#C29A5B" /><rect x="5" y="26" width="6" height="4" fill="#0B0C14" /><rect x="5" y="30" width="6" height="1" fill="#40525A" /><rect x="3" y="32" width="2" height="8" fill="#40525A" /><rect x="11" y="32" width="2" height="8" fill="#40525A" /><rect x="5" y="41" width="3" height="6" fill="#0B0C14" /><rect x="8" y="41" width="3" height="6" fill="#0B0C14" /><rect x="21" y="26" width="6" height="5" fill="#0B0C14" /><rect x="22" y="27" width="4" height="4" fill="#C8BFAE" /><rect x="20" y="31" width="8" height="10" fill="#242936" /><rect x="21" y="32" width="2" height="6" fill="#C29A5B" /><rect x="21" y="26" width="6" height="4" fill="#0B0C14" /><rect x="21" y="30" width="6" height="1" fill="#40525A" /><rect x="19" y="33" width="2" height="8" fill="#40525A" /><rect x="27" y="32" width="2" height="8" fill="#40525A" /><rect x="21" y="41" width="3" height="6" fill="#0B0C14" /><rect x="23" y="41" width="3" height="6" fill="#0B0C14" /><rect x="37" y="26" width="6" height="5" fill="#0B0C14" /><rect x="38" y="27" width="4" height="4" fill="#C8BFAE" /><rect x="36" y="31" width="8" height="10" fill="#242936" /><rect x="37" y="32" width="2" height="6" fill="#C29A5B" /><rect x="37" y="26" width="6" height="4" fill="#0B0C14" /><rect x="37" y="30" width="6" height="1" fill="#40525A" /><rect x="35" y="32" width="2" height="8" fill="#40525A" /><rect x="43" y="32" width="2" height="8" fill="#40525A" /><rect x="37" y="41" width="3" height="6" fill="#0B0C14" /><rect x="40" y="41" width="3" height="6" fill="#0B0C14" /><rect x="53" y="26" width="6" height="5" fill="#0B0C14" /><rect x="54" y="27" width="4" height="4" fill="#C8BFAE" /><rect x="52" y="31" width="8" height="10" fill="#242936" /><rect x="53" y="32" width="2" height="6" fill="#C29A5B" /><rect x="53" y="26" width="6" height="4" fill="#0B0C14" /><rect x="53" y="30" width="6" height="1" fill="#40525A" /><rect x="51" y="32" width="2" height="8" fill="#40525A" /><rect x="59" y="33" width="2" height="8" fill="#40525A" /><rect x="54" y="41" width="3" height="6" fill="#0B0C14" /><rect x="56" y="41" width="3" height="6" fill="#0B0C14" /><rect x="5" y="50" width="6" height="5" fill="#0B0C14" /><rect x="6" y="51" width="4" height="4" fill="#C8BFAE" /><rect x="4" y="55" width="8" height="10" fill="#242936" /><rect x="5" y="56" width="2" height="6" fill="#C29A5B" /><rect x="5" y="50" width="3" height="5" fill="#0B0C14" /><rect x="3" y="56" width="2" height="8" fill="#40525A" /><rect x="11" y="56" width="2" height="8" fill="#40525A" /><rect x="5" y="65" width="3" height="6" fill="#0B0C14" /><rect x="8" y="65" width="3" height="6" fill="#0B0C14" /><rect x="21" y="50" width="6" height="5" fill="#0B0C14" /><rect x="22" y="51" width="4" height="4" fill="#C8BFAE" /><rect x="20" y="55" width="8" height="10" fill="#242936" /><rect x="21" y="56" width="2" height="6" fill="#C29A5B" /><rect x="21" y="50" width="3" height="5" fill="#0B0C14" /><rect x="19" y="57" width="2" height="8" fill="#40525A" /><rect x="27" y="56" width="2" height="8" fill="#40525A" /><rect x="21" y="65" width="3" height="6" fill="#0B0C14" /><rect x="23" y="65" width="3" height="6" fill="#0B0C14" /><rect x="37" y="50" width="6" height="5" fill="#0B0C14" /><rect x="38" y="51" width="4" height="4" fill="#C8BFAE" /><rect x="36" y="55" width="8" height="10" fill="#242936" /><rect x="37" y="56" width="2" height="6" fill="#C29A5B" /><rect x="37" y="50" width="3" height="5" fill="#0B0C14" /><rect x="35" y="56" width="2" height="8" fill="#40525A" /><rect x="43" y="56" width="2" height="8" fill="#40525A" /><rect x="37" y="65" width="3" height="6" fill="#0B0C14" /><rect x="40" y="65" width="3" height="6" fill="#0B0C14" /><rect x="53" y="50" width="6" height="5" fill="#0B0C14" /><rect x="54" y="51" width="4" height="4" fill="#C8BFAE" /><rect x="52" y="55" width="8" height="10" fill="#242936" /><rect x="53" y="56" width="2" height="6" fill="#C29A5B" /><rect x="53" y="50" width="3" height="5" fill="#0B0C14" /><rect x="51" y="56" width="2" height="8" fill="#40525A" /><rect x="59" y="57" width="2" height="8" fill="#40525A" /><rect x="54" y="65" width="3" height="6" fill="#0B0C14" /><rect x="56" y="65" width="3" height="6" fill="#0B0C14" /><rect x="5" y="74" width="6" height="5" fill="#0B0C14" /><rect x="6" y="75" width="4" height="4" fill="#C8BFAE" /><rect x="4" y="79" width="8" height="10" fill="#242936" /><rect x="5" y="80" width="2" height="6" fill="#C29A5B" /><rect x="8" y="74" width="3" height="5" fill="#0B0C14" /><rect x="3" y="80" width="2" height="8" fill="#40525A" /><rect x="11" y="80" width="2" height="8" fill="#40525A" /><rect x="5" y="89" width="3" height="6" fill="#0B0C14" /><rect x="8" y="89" width="3" height="6" fill="#0B0C14" /><rect x="21" y="74" width="6" height="5" fill="#0B0C14" /><rect x="22" y="75" width="4" height="4" fill="#C8BFAE" /><rect x="20" y="79" width="8" height="10" fill="#242936" /><rect x="21" y="80" width="2" height="6" fill="#C29A5B" /><rect x="24" y="74" width="3" height="5" fill="#0B0C14" /><rect x="19" y="81" width="2" height="8" fill="#40525A" /><rect x="27" y="80" width="2" height="8" fill="#40525A" /><rect x="21" y="89" width="3" height="6" fill="#0B0C14" /><rect x="23" y="89" width="3" height="6" fill="#0B0C14" /><rect x="37" y="74" width="6" height="5" fill="#0B0C14" /><rect x="38" y="75" width="4" height="4" fill="#C8BFAE" /><rect x="36" y="79" width="8" height="10" fill="#242936" /><rect x="37" y="80" width="2" height="6" fill="#C29A5B" /><rect x="40" y="74" width="3" height="5" fill="#0B0C14" /><rect x="35" y="80" width="2" height="8" fill="#40525A" /><rect x="43" y="80" width="2" height="8" fill="#40525A" /><rect x="37" y="89" width="3" height="6" fill="#0B0C14" /><rect x="40" y="89" width="3" height="6" fill="#0B0C14" /><rect x="53" y="74" width="6" height="5" fill="#0B0C14" /><rect x="54" y="75" width="4" height="4" fill="#C8BFAE" /><rect x="52" y="79" width="8" height="10" fill="#242936" /><rect x="53" y="80" width="2" height="6" fill="#C29A5B" /><rect x="56" y="74" width="3" height="5" fill="#0B0C14" /><rect x="51" y="80" width="2" height="8" fill="#40525A" /><rect x="59" y="81" width="2" height="8" fill="#40525A" /><rect x="54" y="89" width="3" height="6" fill="#0B0C14" /><rect x="56" y="89" width="3" height="6" fill="#0B0C14" />
</svg>
