<?xml version="1.0" encoding="UTF-8"?>
<svg xmlns="http://www.w3.org/2000/svg" width="64" height="96" viewBox="0 0 64 96" shape-rendering="crispEdges">
<rect x="5" y="1" width="7" height="2" fill="#0B0C14" /><rect x="4" y="3" width="8" height="4" fill="#0B0C14" /><rect x="6" y="3" width="5" height="4" fill="#C8BFAE" /><rect x="9" y="5" width="1" height="1" fill="#69656A" /><rect x="4" y="7" width="8" height="10" fill="#2F4652" /><rect x="5" y="8" width="2" height="7" fill="#C29A5B" /><rect x="7" y="8" width="4" height="2" fill="#52666C" /><rect x="2" y="9" width="2" height="7" fill="#52666C" /><rect x="12" y="9" width="2" height="7" fill="#2F4652" /><rect x="5" y="17" width="3" height="6" fill="#0B0C14" /><rect x="9" y="17" width="3" height="6" fill="#0B0C14" /><rect x="4" y="22" width="4" height="2" fill="#030407" /><rect x="9" y="22" width="4" height="2" fill="#030407" /><rect x="21" y="2" width="7" height="2" fill="#0B0C14" /><rect x="20" y="4" width="8" height="4" fill="#0B0C14" /><rect x="22" y="4" width="5" height="4" fill="#C8BFAE" /><rect x="25" y="6" width="1" height="1" fill="#69656A" /><rect x="20" y="8" width="8" height="10" fill="#2F4652" /><rect x="21" y="9" width="2" height="7" fill="#C29A5B" /><rect x="23" y="9" width="4" height="2" fill="#52666C" /><rect x="18" y="10" width="2" height="7" fill="#52666C" /><rect x="28" y="11" width="2" height="7" fill="#2F4652" /><rect x="21" y="17" width="3" height="6" fill="#0B0C14" /><rect x="24" y="17" width="3" height="6" fill="#0B0C14" /><rect x="20" y="22" width="4" height="2" fill="#030407" /><rect x="24" y="22" width="4" height="2" fill="#030407" /><rect x="37" y="1" width="7" height="2" fill="#0B0C14" /><rect x="36" y="3" width="8" height="4" fill="#0B0C14" /><rect x="38" y="3" width="5" height="4" fill="#C8BFAE" /><rect x="41" y="5" width="1" height="1" fill="#69656A" /><rect x="36" y="7" width="8" height="10" fill="#2F4652" /><rect x="37" y="8" width="2" height="7" fill="#C29A5B" /><rect x="39" y="8" width="4" height="2" fill="#52666C" /><rect x="34" y="9" width="2" height="7" fill="#52666C" /><rect x="44" y="9" width="2" height="7" fill="#2F4652" /><rect x="37" y="17" width="3" height="6" fill="#0B0C14" /><rect x="41" y="17" width="3" height="6" fill="#0B0C14" /><rect x="36" y="22" width="4" height="2" fill="#030407" /><rect x="41" y="22" width="4" height="2" fill="#030407" /><rect x="53" y="2" width="7" height="2" fill="#0B0C14" /><rect x="52" y="4" width="8" height="4" fill="#0B0C14" /><rect x="54" y="4" width="5" height="4" fill="#C8BFAE" /><rect x="57" y="6" width="1" height="1" fill="#69656A" /><rect x="52" y="8" width="8" height="10" fill="#2F4652" /><rect x="53" y="9" width="2" height="7" fill="#C29A5B" /><rect x="55" y="9" width="4" height="2" fill="#52666C" /><rect x="50" y="11" width="2" height="7" fill="#52666C" /><rect x="60" y="10" width="2" height="7" fill="#2F4652" /><rect x="54" y="17" width="3" height="6" fill="#0B0C14" /><rect x="57" y="17" width="3" height="6" fill="#0B0C14" /><rect x="53" y="22" width="4" height="2" fill="#030407" /><rect x="57" y="22" width="4" height="2" fill="#030407" /><rect x="5" y="25" width="7" height="6" fill="#0B0C14" /><rect x="6" y="26" width="5" height="1" fill="#40525A" /><rect x="4" y="31" width="8" height="10" fill="#2F4652" /><rect x="5" y="32" width="6" height="2" fill="#52666C" /><rect x="10" y="33" width="1" height="7" fill="#C29A5B" /><rect x="2" y="33" width="2" height="7" fill="#2F4652" /><rect x="12" y="33" width="2" height="7" fill="#52666C" /><rect x="5" y="41" width="3" height="6" fill="#0B0C14" /><rect x="9" y="41" width="3" height="6" fill="#0B0C14" /><rect x="4" y="46" width="4" height="2" fill="#030407" /><rect x="9" y="46" width="4" height="2" fill="#030407" /><rect x="21" y="26" width="7" height="6" fill="#0B0C14" /><rect x="22" y="27" width="5" height="1" fill="#40525A" /><rect x="20" y="32" width="8" height="10" fill="#2F4652" /><rect x="21" y="33" width="6" height="2" fill="#52666C" /><rect x="26" y="34" width="1" height="7" fill="#C29A5B" /><rect x="18" y="35" width="2" height="7" fill="#2F4652" /><rect x="28" y="34" width="2" height="7" fill="#52666C" /><rect x="22" y="41" width="3" height="6" fill="#0B0C14" /><rect x="25" y="41" width="3" height="6" fill="#0B0C14" /><rect x="20" y="46" width="4" height="2" fill="#030407" /><rect x="24" y="46" width="4" height="2" fill="#030407" /><rect x="37" y="25" width="7" height="6" fill="#0B0C14" /><rect x="38" y="26" width="5" height="1" fill="#40525A" /><rect x="36" y="31" width="8" height="10" fill="#2F4652" /><rect x="37" y="32" width="6" height="2" fill="#52666C" /><rect x="42" y="33" width="1" height="7" fill="#C29A5B" /><rect x="34" y="33" width="2" height="7" fill="#2F4652" /><rect x="44" y="33" width="2" height="7" fill="#52666C" /><rect x="37" y="41" width="3" height="6" fill="#0B0C14" /><rect x="41" y="41" width="3" height="6" fill="#0B0C14" /><rect x="36" y="46" width="4" height="2" fill="#030407" /><rect x="41" y="46" width="4" height="2" fill="#030407" /><rect x="53" y="26" width="7" height="6" fill="#0B0C14" /><rect x="54" y="27" width="5" height="1" fill="#40525A" /><rect x="52" y="32" width="8" height="10" fill="#2F4652" /><rect x="53" y="33" width="6" height="2" fill="#52666C" /><rect x="58" y="34" width="1" height="7" fill="#C29A5B" /><rect x="50" y="34" width="2" height="7" fill="#2F4652" /><rect x="60" y="35" width="2" height="7" fill="#52666C" /><rect x="53" y="41" width="3" height="6" fill="#0B0C14" /><rect x="56" y="41" width="3" height="6" fill="#0B0C14" /><rect x="53" y="46" width="4" height="2" fill="#030407" /><rect x="57" y="46" width="4" height="2" fill="#030407" /><rect x="4" y="49" width="6" height="2" fill="#0B0C14" /><rect x="4" y="51" width="7" height="4" fill="#0B0C14" /><rect x="5" y="51" width="3" height="4" fill="#C8BFAE" /><rect x="5" y="53" width="1" height="1" fill="#69656A" /><rect x="5" y="55" width="7" height="10" fill="#2F4652" /><rect x="10" y="56" width="1" height="7" fill="#C29A5B" /><rect x="3" y="57" width="2" height="7" fill="#52666C" /><rect x="12" y="58" width="2" height="6" fill="#2F4652" /><rect x="5" y="65" width="3" height="6" fill="#0B0C14" /><rect x="9" y="65" width="3" height="6" fill="#0B0C14" /><rect x="4" y="70" width="4" height="2" fill="#030407" /><rect x="9" y="70" width="4" height="2" fill="#030407" /><rect x="20" y="50" width="6" height="2" fill="#0B0C14" /><rect x="20" y="52" width="7" height="4" fill="#0B0C14" /><rect x="21" y="52" width="3" height="4" fill="#C8BFAE" /><rect x="21" y="54" width="1" height="1" fill="#69656A" /><rect x="21" y="56" width="7" height="10" fill="#2F4652" /><rect x="26" y="57" width="1" height="7" fill="#C29A5B" /><rect x="19" y="59" width="2" height="7" fill="#52666C" /><rect x="28" y="58" width="2" height="6" fill="#2F4652" /><rect x="21" y="65" width="3" height="6" fill="#0B0C14" /><rect x="24" y="65" width="3" height="6" fill="#0B0C14" /><rect x="20" y="70" width="4" height="2" fill="#030407" /><rect x="24" y="70" width="4" height="2" fill="#030407" /><rect x="36" y="49" width="6" height="2" fill="#0B0C14" /><rect x="36" y="51" width="7" height="4" fill="#0B0C14" /><rect x="37" y="51" width="3" height="4" fill="#C8BFAE" /><rect x="37" y="53" width="1" height="1" fill="#69656A" /><rect x="37" y="55" width="7" height="10" fill="#2F4652" /><rect x="42" y="56" width="1" height="7" fill="#C29A5B" /><rect x="35" y="57" width="2" height="7" fill="#52666C" /><rect x="44" y="58" width="2" height="6" fill="#2F4652" /><rect x="37" y="65" width="3" height="6" fill="#0B0C14" /><rect x="41" y="65" width="3" height="6" fill="#0B0C14" /><rect x="36" y="70" width="4" height="2" fill="#030407" /><rect x="41" y="70" width="4" height="2" fill="#030407" /><rect x="52" y="50" width="6" height="2" fill="#0B0C14" /><rect x="52" y="52" width="7" height="4" fill="#0B0C14" /><rect x="53" y="52" width="3" height="4" fill="#C8BFAE" /><rect x="53" y="54" width="1" height="1" fill="#69656A" /><rect x="53" y="56" width="7" height="10" fill="#2F4652" /><rect x="58" y="57" width="1" height="7" fill="#C29A5B" /><rect x="51" y="57" width="2" height="7" fill="#52666C" /><rect x="60" y="60" width="2" height="6" fill="#2F4652" /><rect x="54" y="65" width="3" height="6" fill="#0B0C14" /><rect x="57" y="65" width="3" height="6" fill="#0B0C14" /><rect x="53" y="70" width="4" height="2" fill="#030407" /><rect x="57" y="70" width="4" height="2" fill="#030407" /><rect x="7" y="73" width="6" height="2" fill="#0B0C14" /><rect x="7" y="75" width="7" height="4" fill="#0B0C14" /><rect x="9" y="75" width="3" height="4" fill="#C8BFAE" /><rect x="11" y="77" width="1" height="1" fill="#69656A" /><rect x="5" y="79" width="7" height="10" fill="#2F4652" /><rect x="6" y="80" width="1" height="7" fill="#C29A5B" /><rect x="11" y="81" width="2" height="7" fill="#52666C" /><rect x="4" y="82" width="2" height="6" fill="#2F4652" /><rect x="5" y="89" width="3" height="6" fill="#0B0C14" /><rect x="9" y="89" width="3" height="6" fill="#0B0C14" /><rect x="4" y="94" width="4" height="2" fill="#030407" /><rect x="9" y="94" width="4" height="2" fill="#030407" /><rect x="23" y="74" width="6" height="2" fill="#0B0C14" /><rect x="23" y="76" width="7" height="4" fill="#0B0C14" /><rect x="25" y="76" width="3" height="4" fill="#C8BFAE" /><rect x="27" y="78" width="1" height="1" fill="#69656A" /><rect x="21" y="80" width="7" height="10" fill="#2F4652" /><rect x="22" y="81" width="1" height="7" fill="#C29A5B" /><rect x="27" y="83" width="2" height="7" fill="#52666C" /><rect x="20" y="82" width="2" height="6" fill="#2F4652" /><rect x="21" y="89" width="3" height="6" fill="#0B0C14" /><rect x="24" y="89" width="3" height="6" fill="#0B0C14" /><rect x="20" y="94" width="4" height="2" fill="#030407" /><rect x="24" y="94" width="4" height="2" fill="#030407" /><rect x="39" y="73" width="6" height="2" fill="#0B0C14" /><rect x="39" y="75" width="7" height="4" fill="#0B0C14" /><rect x="41" y="75" width="3" height="4" fill="#C8BFAE" /><rect x="43" y="77" width="1" height="1" fill="#69656A" /><rect x="37" y="79" width="7" height="10" fill="#2F4652" /><rect x="38" y="80" width="1" height="7" fill="#C29A5B" /><rect x="43" y="81" width="2" height="7" fill="#52666C" /><rect x="36" y="82" width="2" height="6" fill="#2F4652" /><rect x="37" y="89" width="3" height="6" fill="#0B0C14" /><rect x="41" y="89" width="3" height="6" fill="#0B0C14" /><rect x="36" y="94" width="4" height="2" fill="#030407" /><rect x="41" y="94" width="4" height="2" fill="#030407" /><rect x="55" y="74" width="6" height="2" fill="#0B0C14" /><rect x="55" y="76" width="7" height="4" fill="#0B0C14" /><rect x="57" y="76" width="3" height="4" fill="#C8BFAE" /><rect x="59" y="78" width="1" height="1" fill="#69656A" /><rect x="53" y="80" width="7" height="10" fill="#2F4652" /><rect x="54" y="81" width="1" height="7" fill="#C29A5B" /><rect x="59" y="81" width="2" height="7" fill="#52666C" /><rect x="52" y="84" width="2" height="6" fill="#2F4652" /><rect x="54" y="89" width="3" height="6" fill="#0B0C14" /><rect x="57" y="89" width="3" height="6" fill="#0B0C14" /><rect x="53" y="94" width="4" height="2" fill="#030407" /><rect x="57" y="94" width="4" height="2" fill="#030407" />
</svg>
