<?xml version="1.0" encoding="UTF-8"?>
<svg xmlns="http://www.w3.org/2000/svg" width="256" height="128" viewBox="0 0 256 128" shape-rendering="crispEdges">
<rect x="0" y="0" width="128" height="48" fill="#030407" opacity="0.96"/><rect x="1" y="1" width="126" height="46" fill="#40525A" /><rect x="2" y="2" width="124" height="44" fill="#0B0C14" /><rect x="5" y="5" width="118" height="38" fill="#242936" opacity="0.35"/><rect x="1" y="1" width="5" height="1" fill="#69656A" /><rect x="1" y="1" width="1" height="5" fill="#69656A" /><rect x="122" y="46" width="5" height="1" fill="#69656A" /><rect x="126" y="42" width="1" height="5" fill="#69656A" /><rect x="136" y="4" width="20" height="16" fill="#030407" /><rect x="137" y="3" width="18" height="15" fill="#69656A" /><rect x="138" y="4" width="16" height="12" fill="#0B0C14" /><rect x="139" y="5" width="14" height="1" fill="#242936" /><text x="146" y="14" fill="#C8BFAE" font-size="10" text-anchor="middle" font-family="monospace">E</text><rect x="160" y="4" width="38" height="16" fill="#030407" /><rect x="161" y="3" width="36" height="15" fill="#69656A" /><rect x="162" y="4" width="34" height="12" fill="#0B0C14" /><rect x="163" y="5" width="32" height="1" fill="#242936" /><text x="179" y="14" fill="#C8BFAE" font-size="8" text-anchor="middle" font-family="monospace">ENTER</text><rect x="202" y="4" width="30" height="16" fill="#030407" /><rect x="203" y="3" width="28" height="15" fill="#69656A" /><rect x="204" y="4" width="26" height="12" fill="#0B0C14" /><rect x="205" y="5" width="24" height="1" fill="#242936" /><text x="217" y="14" fill="#C8BFAE" font-size="8" text-anchor="middle" font-family="monospace">ESC</text><polygon points="140,30 146,24 152,30 146,36" fill="#C29A5B" /><rect x="145" y="26" width="2" height="2" fill="#C8BFAE" /><polygon points="160,30 166,24 172,30 166,36" fill="#8D3035" /><rect x="165" y="27" width="2" height="2" fill="#C29A5B" /><circle cx="205" cy="31" r="13" fill="#030407" /><circle cx="205" cy="31" r="11" fill="none" stroke="#69656A" stroke-width="1"/><path d="M205 20 A11 11 0 0 1 216 31" fill="none" stroke="#8D3035" stroke-width="2"/><rect x="204" y="19" width="2" height="2" fill="#C8BFAE" /><polygon points="232,20 244,20 248,25 248,37 244,42 232,42 228,37 228,25" fill="#0B0C14" /><polygon points="233,22 243,22 246,26 246,36 243,40 233,40 230,36 230,26" fill="#242936" /><rect x="235" y="24" width="6" height="10" fill="#8D3035" /><rect x="237" y="36" width="2" height="2" fill="#C8BFAE" /><rect x="0" y="56" width="160" height="56" fill="#030407" /><rect x="1" y="57" width="158" height="54" fill="#40525A" /><rect x="3" y="59" width="154" height="50" fill="#0B0C14" /><rect x="8" y="65" width="144" height="38" fill="#242936" opacity="0.25"/><text x="80" y="92" fill="#C8BFAE" font-size="24" text-anchor="middle" font-family="monospace">02 : 17</text><rect x="49" y="98" width="62" height="1" fill="#8D3035" /><rect x="168" y="56" width="80" height="24" fill="#030407" /><rect x="169" y="57" width="78" height="22" fill="#40525A" /><rect x="171" y="59" width="74" height="18" fill="#0B0C14" /><text x="208" y="72" fill="#C8BFAE" font-size="9" text-anchor="middle" font-family="sans-serif">降低闪烁</text>
</svg>
