<?xml version="1.0" encoding="UTF-8"?>
<svg xmlns="http://www.w3.org/2000/svg" width="256" height="128" viewBox="0 0 256 128" shape-rendering="crispEdges">
<rect x="0" y="0" width="128" height="48" fill="#0B0C14" opacity="0.94"/><rect x="0" y="0" width="128" height="48" fill="none" stroke="#40525A" stroke-width="1"/><rect x="4" y="4" width="120" height="40" fill="none" stroke="#242936" stroke-width="1"/><rect x="136" y="4" width="20" height="16" fill="#242936" /><rect x="137" y="5" width="18" height="14" fill="#0B0C14" /><text x="146" y="16" fill="#C8BFAE" font-size="10" text-anchor="middle" font-family="monospace">E</text><rect x="160" y="4" width="38" height="16" fill="#242936" /><rect x="161" y="5" width="36" height="14" fill="#0B0C14" /><text x="179" y="16" fill="#C8BFAE" font-size="8" text-anchor="middle" font-family="monospace">ENTER</text><rect x="202" y="4" width="30" height="16" fill="#242936" /><rect x="203" y="5" width="28" height="14" fill="#0B0C14" /><text x="217" y="16" fill="#C8BFAE" font-size="8" text-anchor="middle" font-family="monospace">ESC</text><polygon points="140,30 146,24 152,30 146,36" fill="#C29A5B" /><polygon points="160,30 166,24 172,30 166,36" fill="#8D3035" /><circle cx="205" cy="31" r="12" fill="none" stroke="#69656A" stroke-width="2"/><path d="M205 19 A12 12 0 0 1 217 31" fill="none" stroke="#8D3035" stroke-width="2"/><polygon points="232,20 244,20 248,25 248,37 244,42 232,42 228,37 228,25" fill="#242936" /><rect x="235" y="24" width="6" height="10" fill="#8D3035" /><rect x="237" y="36" width="2" height="2" fill="#C8BFAE" /><rect x="0" y="56" width="160" height="56" fill="#0B0C14" opacity="0.96"/><rect x="0" y="56" width="160" height="56" fill="none" stroke="#40525A"/><text x="80" y="90" fill="#C8BFAE" font-size="24" text-anchor="middle" font-family="monospace">02 : 17</text><rect x="168" y="56" width="80" height="24" fill="#242936" /><rect x="169" y="57" width="78" height="22" fill="#0B0C14" /><text x="208" y="72" fill="#C8BFAE" font-size="9" text-anchor="middle" font-family="sans-serif">降低闪烁</text>
</svg>
